<?xml version="1.0" encoding="UTF-8" standalone="no"?>
<svg
   xmlns:dc="http://purl.org/dc/elements/1.1/"
   xmlns:cc="http://creativecommons.org/ns#"
   xmlns:rdf="http://www.w3.org/1999/02/22-rdf-syntax-ns#"
   xmlns:svg="http://www.w3.org/2000/svg"
   xmlns="http://www.w3.org/2000/svg"
   xmlns:sodipodi="http://sodipodi.sourceforge.net/DTD/sodipodi-0.dtd"
   xmlns:inkscape="http://www.inkscape.org/namespaces/inkscape"
   width="767.50208"
   height="208.29366"
   viewBox="0 0 767.50208 208.29366"
   version="1.1"
   id="svg8"
   sodipodi:docname="target-space.svg"
   inkscape:version="1.0.2 (e86c870879, 2021-01-15)">
  <defs
     id="defs2" />
  <sodipodi:namedview
     id="base"
     pagecolor="#ffffff"
     bordercolor="#666666"
     borderopacity="1.0"
     inkscape:pageopacity="0.0"
     inkscape:pageshadow="2"
     inkscape:zoom="1.2525393"
     inkscape:cx="426.32384"
     inkscape:cy="126.6267"
     inkscape:document-units="px"
     inkscape:current-layer="layer1"
     showgrid="false"
     units="px"
     inkscape:window-width="1600"
     inkscape:window-height="881"
     inkscape:window-x="0"
     inkscape:window-y="0"
     inkscape:window-maximized="1"
     inkscape:document-rotation="0"
     fit-margin-top="0"
     fit-margin-left="0"
     fit-margin-right="0"
     fit-margin-bottom="0" />
  <metadata
     id="metadata5">
    <rdf:RDF>
      <cc:Work
         rdf:about="">
        <dc:format>image/svg+xml</dc:format>
        <dc:type
           rdf:resource="http://purl.org/dc/dcmitype/StillImage" />
        <dc:title></dc:title>
      </cc:Work>
    </rdf:RDF>
  </metadata>
  <g
     inkscape:label="Layer 1"
     inkscape:groupmode="layer"
     id="layer1"
     transform="translate(-13.861894,62.87321)">
    <path
       style="fill:#000080;fill-opacity:0.959391;stroke-width:0.8"
       id="path11"
       d="m 480.39424,-24.938435 c 0.53052,6.147602 1.02427,12.299425 1.50798,18.45175 0.50202,5.976475 1.34936,11.93608 1.41862,17.939437 -0.0658,4.074899 -0.15307,8.150899 -0.65123,12.19816 -0.22741,1.73518 -0.11962,0.89355 -0.32423,2.52478 0,0 2.0602,-1.1417 2.0602,-1.1417 v 0 c 0.19903,-1.62714 0.0947,-0.78714 0.31372,-2.519933 0.47511,-4.053153 0.54005,-8.133303 0.61106,-12.211043 -0.0895,-6.000506 -0.97262,-11.95276 -1.46937,-17.927374 -0.48203,-6.161107 -0.98442,-12.322566 -1.41117,-18.486563 0,0 -2.05558,1.172486 -2.05558,1.172486 z" />
    <path
       style="fill:#000080;fill-opacity:0.959391;stroke-width:0.8"
       id="path13"
       d="m 481.56522,-26.619478 c 4.33061,-0.520191 8.64672,-1.476584 13.02421,-1.531734 0.93539,-0.01179 1.86956,0.07136 2.80433,0.107034 4.0899,0.444379 7.79135,2.00737 9.55405,5.969045 0.33903,0.761954 0.51151,1.58758 0.76726,2.38137 0.66077,3.671438 0.65689,7.65861 -1.32995,10.960083 -0.39887,0.66278 -0.91647,1.246425 -1.3747,1.869638 -1.31136,1.223251 -2.11383,2.122227 -3.71116,2.9998 -0.10184,0.05595 -0.21586,-0.148385 -0.328,-0.117985 -0.81863,0.221915 -1.58292,0.615163 -2.39606,0.856429 -2.01252,0.597137 -3.13611,0.707585 -5.20502,1.038563 -2.26483,0.3789 -4.5542,0.353769 -6.839,0.305893 0,0 -1.82209,1.453593 -1.82209,1.453593 v 0 c 2.29908,0.04689 4.60405,0.08478 6.88411,-0.289837 2.05615,-0.316815 3.22513,-0.43027 5.22897,-1.003743 3.89874,-1.115774 7.44346,-3.384098 10.26902,-6.262644 0.45335,-0.637315 0.96682,-1.235879 1.36005,-1.911946 1.95758,-3.36561 1.92133,-7.397046 1.23425,-11.105082 -0.26342,-0.808872 -0.44311,-1.649989 -0.79027,-2.426614 -1.7995,-4.025667 -5.52678,-5.676887 -9.69961,-6.148018 -0.94023,-0.04128 -1.87958,-0.131397 -2.82069,-0.123833 -4.36716,0.0351 -8.66883,1.00663 -12.99509,1.471837 0,0 -1.81461,1.508151 -1.81461,1.508151 z" />
    <path
       style="fill:#000080;fill-opacity:0.959391;stroke-width:0.8"
       id="path15"
       d="m 538.29283,-24.982183 c -3.91598,-1.520452 -7.8844,-2.795509 -12.03609,-3.460487 -4.16054,-0.448311 -7.81609,0.453368 -10.36785,4.189984 -0.36412,0.53318 -0.62703,1.128839 -0.94054,1.693258 -0.16326,0.633533 -0.42333,1.249751 -0.4898,1.900598 -0.44107,4.319019 3.0659,7.20849 6.09043,9.604833 4.55992,2.921858 9.86106,4.213966 14.99062,5.743717 3.91313,1.150927 5.78758,2.481892 7.68645,6.052555 1.48852,3.809547 1.38636,8.03817 0.90571,12.038814 -0.50357,2.107499 -1.44058,3.962116 -3.52577,4.933119 -0.20988,0.09773 -0.43412,-0.229011 -0.66419,-0.203144 -13.1129,1.474307 7.97149,-0.118758 -7.0398,0.898587 -5.31267,0.05714 -11.10705,-0.195333 -15.11869,-4.165028 -0.41703,-0.412666 -0.73478,-0.914834 -1.10216,-1.372251 -0.0776,-0.345368 -0.15518,-0.690735 -0.23276,-1.036102 0,0 -2.01906,1.218461 -2.01906,1.218461 v 0 c 0.10215,0.370059 0.20429,0.740119 0.30643,1.110178 0.38105,0.466671 0.71306,0.978113 1.14316,1.400012 4.07265,3.994994 9.87223,4.322955 15.26262,4.273498 5.33865,-0.314284 6.69135,-0.224027 11.57414,-3.083442 2.02867,-1.188006 2.98083,-2.864431 3.45034,-5.103059 0.45963,-4.047963 0.54872,-8.319515 -0.96562,-12.167399 -1.92501,-3.62393 -3.83408,-5.027967 -7.81196,-6.190256 -5.11043,-1.514172 -10.3938,-2.776817 -14.94683,-5.666945 -2.95102,-2.328362 -6.44353,-5.159484 -5.9292,-9.387229 0.0773,-0.635119 0.34507,-1.232198 0.5176,-1.848297 4.08921,-7.037238 -2.23791,3.603472 2.21057,-3.070002 0.0913,-0.136966 -0.6058,0.252146 -0.44636,0.211252 0.56843,-0.145783 1.10271,-0.419861 1.67957,-0.527533 1.29675,-0.242041 2.65455,-0.09132 3.95212,-0.02758 4.13573,0.634116 8.08743,1.893903 11.96701,3.453174 0,0 1.89991,-1.413284 1.89991,-1.413284 z" />
    <path
       style="fill:#000080;fill-opacity:0.959391;stroke-width:0.8"
       id="path17"
       d="m 554.64202,-28.226659 c -0.3259,6.500014 -0.78297,12.9911 -1.08864,19.492668 -0.15522,5.7513 -0.15825,11.544756 0.98644,17.202438 0.50238,3.207856 2.21925,5.729222 4.73662,7.692111 2.79883,1.596798 6.01252,1.976099 9.18074,1.980234 5.0657,-0.261309 9.01127,-3.376285 13.00233,-6.175388 3.26391,-2.827326 5.33124,-6.717427 6.30052,-10.907156 0.22634,-0.97836 0.33348,-1.980522 0.50021,-2.970783 0.78423,-6.450977 0.10508,-12.939895 -0.46405,-19.376684 -0.38471,-3.912187 -0.50367,-7.840707 -0.96044,-11.744849 -0.17302,-1.190159 0.001,-0.753254 -0.30119,-1.378804 0,0 -2.01266,1.28047 -2.01266,1.28047 v 0 c 0.30576,0.528019 0.11256,0.134045 0.29076,1.283876 0.46006,3.894662 0.59602,7.81433 0.99726,11.715931 0.58419,6.417867 1.25895,12.892264 0.43774,19.322914 -0.17347,0.982921 -0.28764,1.978172 -0.52039,2.948765 -0.999,4.165847 -3.09089,8.00355 -6.37571,10.781846 -0.10652,0.997329 0.0225,0.288185 -2.08231,1.495023 -2.17221,1.245508 -4.46905,2.102346 -6.98426,2.259036 -3.12457,0.03445 -6.30331,-0.328976 -9.08422,-1.858316 -2.49184,-1.909813 -4.15994,-4.3938 -4.66234,-7.541993 -1.15097,-5.627539 -1.16638,-11.394612 -1.01861,-17.118026 0.31025,-6.524982 0.77468,-13.038232 1.18055,-19.557376 0,0 -2.05835,1.174063 -2.05835,1.174063 z" />
    <path
       style="fill:#000080;fill-opacity:0.959391;stroke-width:0.8"
       id="path19"
       d="m 615.62979,-45.25871 c -3.13133,8.663296 -6.8029,17.285872 -8.27831,26.440909 -0.36666,2.275166 -0.44487,4.587524 -0.66731,6.881286 0.14261,2.282026 0.13727,4.578139 0.42784,6.846079 1.01581,7.928511 3.79533,16.545943 7.79694,23.489379 0.74596,1.294366 1.66861,2.478531 2.50291,3.717797 2.53775,3.368212 1.35267,1.829062 3.54114,4.628262 0,0 1.92917,-1.2789 1.92917,-1.2789 v 0 c -2.22383,-2.76487 -1.02204,-1.24367 -3.58901,-4.576439 -0.83746,-1.225805 -1.76445,-2.395023 -2.51238,-3.677416 -4.0233,-6.89826 -6.79322,-15.4871 -7.7932,-23.387815 -0.28577,-2.257871 -0.275,-4.543452 -0.41251,-6.815179 0.22581,-2.285274 0.30707,-4.589482 0.67743,-6.855823 1.50173,-9.189455 5.21271,-17.843316 8.45534,-26.504742 0,0 -2.07805,1.092602 -2.07805,1.092602 z" />
    <path
       style="fill:#000080;fill-opacity:0.959391;stroke-width:0.8"
       id="path21"
       d="m 626.35401,-13.726131 c 1.01588,-4.615105 2.47681,-10.174254 5.63092,-13.827111 0.61437,-0.71152 1.40386,-1.25061 2.10579,-1.875915 1.12142,1.216509 -0.80935,-0.708208 2.55076,0.731912 2.68214,1.149548 4.16722,4.461497 4.82066,7.071866 0.2999,1.198027 0.35119,2.44489 0.52679,3.667336 -0.10221,8.714925 -3.8238,13.848047 -9.52925,19.921461 -0.80177,1.229615 -4.05165,3.539274 -4.56621,4.967452 -0.3351,0.930094 0.94498,1.076577 1.40182,1.114805 0.6934,0.05802 1.39072,-0.05039 2.08608,-0.07558 6.83162,-1.06148 13.54598,-2.704911 20.37598,-3.787135 3.19066,-0.465861 1.74512,-0.291788 4.33182,-0.560666 0,0 1.80851,-1.480717 1.80851,-1.480717 v 0 c -2.62249,0.286705 -1.1611,0.103851 -4.3795,0.58467 -6.81397,1.080062 -13.51447,2.706037 -20.32752,3.781292 -7e-4,3.6e-5 -2.59355,0.257269 -3.07278,-0.03487 -0.99571,-0.606981 4.13509,-5.032494 4.40304,-5.487752 5.70821,-6.142188 9.36164,-11.337142 9.42405,-20.096303 -0.18113,-1.237927 -0.23833,-2.500432 -0.54338,-3.71378 -0.67932,-2.70198 -2.19925,-6.046145 -4.92561,-7.292521 -0.69589,-0.318133 -1.51644,-0.605004 -2.25766,-0.415078 -1.51656,0.388592 -2.80948,1.382259 -4.21423,2.073388 -0.69059,0.640521 -1.46715,1.199332 -2.07177,1.921561 -3.18316,3.802335 -4.53593,9.228725 -5.64414,13.945213 0,0 2.06583,-1.133529 2.06583,-1.133528 z" />
    <path
       style="fill:#000080;fill-opacity:0.959391;stroke-width:0.8"
       id="path23"
       d="m 666.03852,1.316292 c 0.55814,0.550619 1.23138,1.005004 1.67442,1.651857 4.00096,5.841514 2.39577,12.509273 1.05868,18.871361 0,0 1.94121,-1.055047 1.94121,-1.055047 v 0 c 1.33621,-6.48021 2.89267,-13.146942 -1.08418,-19.117445 -0.44457,-0.667437 -1.12027,-1.147804 -1.68041,-1.721707 0,0 -1.90972,1.370981 -1.90972,1.370981 z" />
    <path
       style="fill:#000080;fill-opacity:0.959391;stroke-width:0.8"
       id="path25"
       d="m 680.74343,-17.709604 c 1.09555,-3.590308 2.02337,-8.063843 5.85519,-9.771141 0.22652,-0.10093 0.46928,0.160566 0.70391,0.240849 0.94143,-0.07685 1.88378,-0.317891 2.82429,-0.23054 4.0667,0.377699 7.68463,3.714666 8.40918,7.723336 0.20338,1.125192 0.036,2.286565 0.054,3.429848 -1.44603,7.697548 -6.66622,13.541507 -11.69296,19.213347 -0.35175,0.536168 -0.89026,0.988841 -1.05526,1.608505 -0.34026,1.27786 1.32804,1.530272 2.02388,1.632288 3.12065,0.457518 6.55058,-0.263994 9.62803,-0.650358 4.51956,-0.798439 9.09215,-1.152306 13.64192,-1.696955 0,0 1.80851,-1.48637 1.80851,-1.48637 v 0 c -4.56194,0.599816 -9.16167,0.920257 -13.69716,1.742336 -3.10049,0.390102 -6.37257,1.002387 -9.51531,0.680598 -0.49307,-0.05049 -2.16515,-0.101316 -1.80055,-1.256821 0.18822,-0.596518 0.69155,-1.042501 1.03732,-1.563751 5.02251,-5.715116 10.21967,-11.612313 11.59936,-19.356247 -0.0288,-1.166612 0.12905,-2.352946 -0.0865,-3.499836 -0.76711,-4.081853 -4.42909,-7.508559 -8.56987,-7.970833 -0.95111,-0.10618 -1.91031,0.119293 -2.86546,0.17894 -2.03318,0.98779 -4.93013,2.046386 -6.67506,3.790716 -2.20449,2.20372 -2.72409,5.543541 -3.70172,8.358782 0,0 2.07424,-1.116693 2.07424,-1.116693 z" />
    <path
       style="fill:#000080;fill-opacity:0.959391;stroke-width:0.8"
       id="path27"
       d="m 716.71555,-42.408044 c 0.20491,11.197738 -0.73189,22.372225 -1.13368,33.556975 -0.0673,9.767988 -0.72079,19.556311 -0.38637,29.324994 0.0412,0.441476 0.0825,0.882953 0.12373,1.32443 0,0 2.03021,-1.186017 2.03021,-1.186017 v 0 c -0.0494,-0.430944 -0.0987,-0.861887 -0.14807,-1.29283 -0.41936,-9.731872 0.1636,-19.492495 0.24495,-29.225027 0.41806,-11.226312 1.34484,-22.434674 1.32205,-33.673432 0,0 -2.05282,1.170907 -2.05282,1.170907 z" />
    <path
       style="fill:#000080;fill-opacity:0.959391;stroke-width:0.8"
       id="path29"
       d="m 748.54265,-34.807358 c -0.57799,0.56277 -1.17988,1.101989 -1.73396,1.688308 -2.19924,2.327191 -4.22979,4.809308 -6.41073,7.153654 -3.95934,4.255988 -8.1494,8.248271 -12.42337,12.182252 0.56199,0.05251 -6.54072,4.621108 -4.29396,5.901863 1.37886,0.786015 5.94546,0.434837 6.80602,0.392586 1.96381,-0.09642 3.9226,-0.27672 5.8839,-0.41508 10.10691,-0.82468 20.05489,-2.843151 30.08213,-4.262906 0,0 1.79775,-1.484215 1.79775,-1.484215 v 0 c -10.04213,1.553296 -20.03273,3.52549 -30.17302,4.360338 -1.94525,0.130088 -3.88827,0.2995 -5.83576,0.390263 -0.262,0.01221 -5.44456,0.303134 -6.55022,-0.2138 -1.07297,-0.501648 0.27166,-1.825645 1.23664,-2.807319 0.969,-0.985757 2.0397,-1.866103 3.05955,-2.799154 4.26277,-3.944514 8.43995,-7.948511 12.40521,-12.196809 1.10683,-1.185843 5.09663,-5.718625 6.51155,-7.18244 0.56869,-0.588342 1.18994,-1.123504 1.78491,-1.685256 0,0 -2.14664,0.977715 -2.14664,0.977715 z" />
    <path
       style="fill:#000080;fill-opacity:0.959391;stroke-width:0.8"
       id="path31"
       d="m 749.75524,-20.206795 c 2.13015,6.563967 3.21103,13.374385 4.26309,20.173067 0.36967,3.259995 0.88692,6.469862 1.70546,9.643413 0,0 1.9766,-1.195492 1.9766,-1.195492 v 0 c -0.83752,-3.154609 -1.36945,-6.348001 -1.74199,-9.59438 -1.05801,-6.825205 -2.15581,-13.654405 -4.18971,-20.272836 0,0 -2.01345,1.246228 -2.01345,1.246228 z" />
    <path
       style="fill:#000080;fill-opacity:0.959391;stroke-width:0.8"
       id="path33"
       d="m 750.38883,-46.146256 c 6.99317,2.670731 13.7015,6.418306 18.60168,12.20908 1.28337,1.516611 2.3092,3.233596 3.4638,4.850395 3.98742,7.018285 6.45307,14.837319 6.91747,22.923143 0.32787,5.708758 -0.16804,7.677599 -0.84843,13.380627 -1.76664,8.782423 -3.97494,17.727683 -8.18853,25.711083 -0.48704,0.9228 -1.0647,1.79484 -1.59705,2.69226 -0.46515,0.63851 -0.93029,1.27702 -1.39544,1.91553 0,0 2.07956,-1.02011 2.07956,-1.02011 v 0 c 0.4544,-0.64109 0.90879,-1.28218 1.36319,-1.92327 0.52282,-0.90025 1.09004,-1.77614 1.56847,-2.70074 4.14402,-8.00861 6.30783,-16.948869 8.06345,-25.725387 0.67785,-5.725878 1.17373,-7.705074 0.84058,-13.436749 -0.47216,-8.123113 -2.95544,-15.972552 -6.96704,-23.020311 -1.16024,-1.627553 -2.19241,-3.354475 -3.48072,-4.88266 -4.8982,-5.810231 -11.5812,-9.574726 -18.52872,-12.391397 0,0 -1.89227,1.418506 -1.89227,1.418506 z" />
    <path
       style="fill:#000080;fill-opacity:0.959391;stroke-width:1.09612"
       id="path35"
       d="m 290.46079,-9.2384161 c 5.00595,6.4140882 10.33771,12.5565635 15.6483,18.7165839 4.11529,4.5356422 8.34761,8.9764012 12.97427,12.9908712 1.15463,0.848177 2.26614,1.752432 3.38124,2.651472 0,0 2.66102,-1.860046 2.66102,-1.860046 v 0 c -1.12919,-0.88038 -2.23945,-1.78554 -3.40413,-2.61929 -4.64327,-3.979871 -8.89167,-8.389389 -13.00746,-12.9117251 -5.31804,-6.1512705 -10.67487,-12.2741243 -15.57613,-18.7700399 0,0 -2.67711,1.8021739 -2.67711,1.8021739 z" />
    <path
       style="fill:#000080;fill-opacity:0.959391;stroke-width:1.09612"
       id="path37"
       d="m 324.53846,-15.462783 c -6.12534,5.7099435 -11.07876,12.585139 -16.29387,19.1167583 -5.66294,6.8246257 -11.74275,13.3469057 -18.50457,19.0886947 -1.98264,2.09124 -4.87646,3.174347 -6.81794,5.304715 -0.46446,0.509668 -0.88398,1.367998 -1.20939,1.96894 -0.13338,0.340359 -0.26676,0.680719 -0.40012,1.021078 0,0 2.87493,-1.499846 2.87493,-1.499846 v 0 c 0.13912,-0.32831 0.27824,-0.656619 0.41736,-0.98493 1.87292,-3.24121 5.31168,-4.662305 8.01122,-7.139517 6.71677,-5.770799 12.77644,-12.2878061 18.41609,-19.1126977 5.2419,-6.55447 10.218,-13.4713773 16.45254,-19.1214123 0,0 -2.94625,1.358217 -2.94625,1.358217 z" />
    <path
       style="fill:#000080;fill-opacity:0.959391;stroke-width:0.496108"
       id="path39"
       d="m 330.80601,44.703293 c -2.07879,-0.381924 -4.12794,-0.09765 -6.01921,1.007634 -0.42888,0.381216 -1.7672,1.045101 -1.84815,2.105699 -0.0975,1.27733 1.25258,2.099086 1.96377,2.627262 1.86655,1.123599 3.82152,2.015807 5.56721,3.410724 1.83873,1.72424 1.07821,3.251377 -0.089,5.190424 -0.50447,0.620874 -1.27391,1.707771 -1.9887,2.025372 -0.10705,0.04752 -0.0882,-0.31115 -0.20051,-0.335096 -0.45895,-0.09784 -0.93634,0.07055 -1.39808,-0.0055 -1.09023,-0.18005 -1.8229,-0.657395 -2.81553,-1.174239 -1.07946,-0.763062 -2.2641,-1.41803 -2.96456,-2.717499 0,0 -1.11786,0.879758 -1.11786,0.879758 v 0 c 0.73612,1.310153 1.9251,1.99347 3.03448,2.770129 1.13109,0.598227 2.98184,1.70822 4.26843,1.272139 1.74954,-0.593014 3.17873,-1.816548 4.3594,-3.413223 1.18713,-2.039951 1.86575,-3.642648 -0.009,-5.417737 -1.74771,-1.396063 -3.70315,-2.292144 -5.5738,-3.411836 -0.63191,-0.466028 -1.45725,-0.946734 -1.77064,-1.834074 -0.0663,-0.187789 -0.1093,-0.402904 -0.0823,-0.604458 0.0296,-0.220039 0.38902,-0.462475 0.24401,-0.600197 -0.16249,-0.154337 -0.38146,0.192336 -0.57219,0.2885 1.85843,-1.150592 3.88575,-1.460665 5.95253,-1.082804 0,0 1.05936,-0.980771 1.05936,-0.980771 z" />
    <path
       style="fill:#000080;fill-opacity:0.959391;stroke-width:0.496108"
       id="path41"
       d="m 340.75319,44.331815 c -2.37166,0.493675 -4.41094,1.669119 -6.26287,3.556253 -0.35737,0.36417 -0.61532,0.850726 -0.92299,1.276089 -1.26814,2.269719 -2.22786,4.961454 -1.63558,7.738614 0.10227,0.479554 0.28718,0.927628 0.43078,1.391439 1.22923,2.575224 2.16621,3.850921 4.65034,4.327537 2.2433,0.05228 4.01533,-1.58153 5.54234,-3.441916 1.23557,-1.679386 1.57615,-3.791079 1.75904,-5.953432 0.2217,-2.151879 -0.11323,-4.184608 -0.89365,-6.113231 -0.63381,-1.345588 -1.77111,-1.999573 -2.94889,-2.439377 -0.65031,-0.224416 -1.30374,-0.307094 -1.9744,-0.2297 0,0 -1.03536,1.027331 -1.03536,1.027331 v 0 c 0.66096,-0.114607 1.30076,-0.04494 1.9468,0.17152 1.14808,0.406804 2.26937,1.024878 2.89124,2.326829 0.77068,1.904036 1.08704,3.910032 0.86107,6.032361 -0.19476,2.140949 -0.55063,4.218388 -1.80063,5.857076 -0.217,0.258705 -0.43399,0.517409 -0.65099,0.776114 0.1318,-0.05052 0.49275,-0.270329 0.3954,-0.151624 -0.75996,0.926594 -2.04694,1.081597 -3.0487,1.157615 -2.45319,-0.402593 -3.36729,-1.654133 -4.57926,-4.180517 -0.1394,-0.453966 -0.32028,-0.892345 -0.41819,-1.361883 -0.5718,-2.742237 0.41639,-5.399423 1.68548,-7.614439 0.31184,-0.417127 0.64955,-0.807989 0.93552,-1.251387 0.0237,-0.03668 -0.0782,-0.102798 -0.0459,-0.127979 1.23377,-0.96099 2.67423,-1.372178 4.08688,-1.747584 0,0 1.03252,-1.025709 1.03252,-1.025709 z" />
    <path
       style="fill:#000080;fill-opacity:0.959391;stroke-width:0.496108"
       id="path43"
       d="m 353.93289,40.665439 c -2.53349,2.742755 -4.17626,6.469336 -4.91535,10.467725 -0.19362,1.04744 -0.27054,2.121477 -0.40582,3.182211 -0.12263,3.619685 0.2895,7.326862 1.92156,10.448881 0.23462,0.448814 0.55508,0.822961 0.83261,1.234442 0,0 1.08821,-0.875984 1.08821,-0.875984 v 0 c -0.27684,-0.398682 -0.59726,-0.758515 -0.83053,-1.196037 -1.64133,-3.078476 -2.03603,-6.763579 -1.90581,-10.346636 0.13898,-1.055211 0.21922,-2.12421 0.41692,-3.165642 0.75851,-3.995465 2.43134,-7.720014 5.01041,-10.4075 0,0 -1.2122,0.65854 -1.2122,0.65854 z" />
    <path
       style="fill:#000080;fill-opacity:0.959391;stroke-width:0.496108"
       id="path45"
       d="m 356.27747,53.548391 c 0.76875,-2.717159 1.6767,-5.372736 2.10546,-8.207606 0.0285,-0.248661 0.057,-0.497323 0.0855,-0.745977 -0.0121,-0.0377 -0.0126,-0.141397 -0.0364,-0.113061 -0.44992,0.533835 -0.99792,0.999808 -1.28349,1.679225 -0.21875,0.520423 -0.1102,1.159982 -0.15427,1.741299 -0.13555,1.788091 -0.19992,3.15033 -0.29859,4.954887 -0.1531,3.392309 -0.10376,1.725152 -0.15343,5.001237 0,0 1.11686,-0.766909 1.11686,-0.766909 v 0 c 0.0469,-3.267522 -0.002,-1.603624 0.15202,-4.99144 0.10539,-1.845453 0.16517,-3.137593 0.32187,-4.962067 0.0501,-0.583464 0.41994,-1.236666 0.1797,-1.746336 -0.33438,-0.709418 -1.50072,-0.04541 -1.0875,0.714122 -0.43152,2.833534 -1.34104,5.488804 -2.12359,8.199404 0,0 1.1759,-0.756778 1.1759,-0.756778 z" />
    <path
       style="fill:#000080;fill-opacity:0.959391;stroke-width:0.496108"
       id="path47"
       d="m 361.65797,58.208403 c 0.13546,0.33108 0.33027,0.635515 0.40639,0.993226 0.59419,2.791872 -0.51448,5.624123 -1.41964,8.108514 0,0 1.14525,-0.715895 1.14525,-0.715895 v 0 c 0.90836,-2.542833 1.99339,-5.403553 1.38971,-8.245178 -0.0798,-0.375378 -0.2794,-0.697663 -0.4191,-1.046498 0,0 -1.10261,0.905831 -1.10261,0.905831 z" />
    <path
       style="fill:#000080;fill-opacity:0.959391;stroke-width:0.496108"
       id="path49"
       d="m 371.2715,42.524556 c -0.87263,1.699769 -1.76648,3.385096 -2.66749,5.063243 -0.79417,1.479192 -1.62761,2.835763 -2.18159,4.469667 0.10233,0.203089 0.13298,0.498359 0.307,0.609252 0.58928,0.37552 2.05782,0.151139 2.53414,0.102764 1.79241,-0.182033 3.57551,-0.49026 5.36629,-0.696736 0.42236,-0.02005 0.8447,-0.04009 1.26705,-0.06021 0,0 1.01783,-0.993827 1.01783,-0.993827 v 0 c -0.42705,0.02093 -0.8541,0.04186 -1.28116,0.06273 -1.78911,0.208549 -3.57022,0.510448 -5.3608,0.69827 -0.25708,0.027 -1.94766,0.248417 -2.42413,0.01098 -0.14308,-0.0713 -0.16999,-0.312657 -0.25499,-0.468986 0.55335,-1.610804 1.37614,-2.965139 2.16106,-4.425962 0.90889,-1.691545 1.81586,-3.385212 2.70594,-5.091184 0,0 -1.18915,0.719966 -1.18915,0.719966 z" />
    <path
       style="fill:#000080;fill-opacity:0.959391;stroke-width:0.496108"
       id="path51"
       d="m 372.90627,47.586245 c -0.22679,3.753028 -0.22232,7.510304 -0.12747,11.268575 0.0537,1.768788 0.002,0.945451 0.13566,2.471742 0,0 1.14096,-0.8067 1.14096,-0.8067 v 0 c -0.14003,-1.508795 -0.0847,-0.692454 -0.1453,-2.45098 -0.10664,-3.75789 -0.11873,-7.517321 0.15625,-11.267158 0,0 -1.1601,0.784521 -1.1601,0.784521 z" />
    <path
       style="fill:#000080;fill-opacity:0.959391;stroke-width:0.496108"
       id="path53"
       d="m 377.48419,40.071202 c 1.51378,1.170154 3.16837,2.178157 4.34064,3.879261 1.08162,1.569581 1.06694,2.023274 1.68824,3.966092 0.14838,0.86951 0.35835,1.726926 0.44512,2.608517 0.36246,3.682849 -0.19094,7.623958 -1.40548,11.019586 -0.26496,0.740776 -0.61689,1.431517 -0.92534,2.147279 -0.7213,1.608966 -1.68138,3.019048 -2.61992,4.442572 0,0 1.18024,-0.691702 1.18024,-0.691702 v 0 c 0.92766,-1.427598 1.87248,-2.845709 2.58402,-4.454928 0.30388,-0.720849 0.65071,-1.417505 0.91161,-2.162533 1.51687,-4.331486 1.87786,-9.172413 0.92122,-13.727192 -0.62995,-1.976691 -0.61329,-2.430323 -1.70807,-4.030408 -1.17417,-1.716132 -2.83088,-2.730033 -4.33296,-3.946005 0,0 -1.07932,0.949461 -1.07932,0.949461 z" />
    <path
       style="fill:#000080;fill-opacity:0.959391;stroke-width:0.496108"
       id="path55"
       d="m 391.71582,50.517539 c 1.33231,1.896221 2.74204,3.708326 4.09913,5.578558 0.43008,0.597272 0.93243,1.09169 1.3113,1.737446 0,0 1.11828,-0.887879 1.11828,-0.887879 v 0 c -0.39305,-0.640793 -0.89886,-1.136983 -1.33575,-1.735802 -1.35883,-1.8652 -2.77414,-3.668305 -4.08049,-5.588555 0,0 -1.11247,0.896232 -1.11247,0.896232 z" />
    <path
       style="fill:#000080;fill-opacity:0.959391;stroke-width:0.496108"
       id="path57"
       d="m 397.04168,49.33942 c -1.73326,3.173116 -3.53034,6.300625 -5.37938,9.377399 -0.80435,1.430351 -0.45912,0.772295 -1.05431,1.959719 0,0 1.18577,-0.717354 1.18577,-0.717354 v 0 c 0.58234,-1.168086 0.24388,-0.519038 1.03388,-1.932849 1.84635,-3.098136 3.64917,-6.23731 5.41318,-9.404324 0,0 -1.19914,0.717409 -1.19914,0.717409 z" />
    <path
       style="fill:#000080;fill-opacity:0.959391;stroke-width:0.496108"
       id="path59"
       d="m 413.78284,43.503084 c -1.8775,-1.236836 -3.98538,-1.131386 -6.00165,-0.52538 -1.20958,0.658779 -3.36892,1.99701 -2.57619,3.998206 0.3065,0.773768 0.94444,1.17762 1.48661,1.64349 2.48766,1.510896 4.9745,3.01976 7.33806,4.803032 1.03667,0.883507 2.55696,1.812862 2.63966,3.584733 0.0395,0.846062 -0.32454,1.589544 -0.5888,2.324911 -1.04496,1.756073 -0.79167,2.031936 -2.27639,2.21321 -0.9523,0.116265 -1.60761,-0.147172 -2.52312,-0.386936 -0.93502,-0.256196 -1.77468,-0.66574 -2.53868,-1.352583 0,0 -1.08861,0.923061 -1.08861,0.923061 v 0 c 0.78177,0.697347 1.63381,1.12851 2.58889,1.390853 0.9133,0.251901 1.6041,0.528898 2.55722,0.446321 1.97722,-0.171283 3.48446,-2.035374 4.44711,-3.965168 0.27934,-0.823146 0.61286,-1.497764 0.5495,-2.424452 -0.12381,-1.810715 -1.61828,-2.766633 -2.70224,-3.67198 -2.3603,-1.780502 -4.84418,-3.290505 -7.32792,-4.800631 -0.70668,-0.599597 -1.64307,-1.192498 -1.52822,-2.439787 0.0283,-0.307175 0.38055,-0.589491 0.26971,-0.86801 -0.0828,-0.207976 -0.68348,0.311581 -0.56201,0.133522 0.19884,-0.291453 0.55345,-0.351085 0.83018,-0.526628 1.97756,-0.644038 4.07079,-0.781425 5.92194,0.443541 0,0 1.08495,-0.943325 1.08495,-0.943325 z" />
    <path
       style="fill:#000080;fill-opacity:0.959391;stroke-width:0.496108"
       id="path61"
       d="m 430.82478,41.495493 c -1.69651,-0.141888 -3.58201,-0.328667 -5.16744,0.589874 -0.38222,0.221443 -0.72047,0.539964 -1.0807,0.809946 -0.68568,0.674337 -1.44611,1.25078 -2.05704,2.023028 -0.33977,0.429481 -0.55016,0.99125 -0.75498,1.531479 -0.68816,1.81512 -0.82294,3.821545 -0.45329,5.763866 0.13427,0.705578 0.38195,1.372438 0.57292,2.058653 1.25419,3.082065 3.00627,5.984577 5.68422,7.402846 0.37424,0.198199 0.77536,0.31189 1.16304,0.467839 0.36295,0.01678 0.72826,0.103051 1.08882,0.05028 1.47764,-0.216396 3.88507,-2.316516 4.59623,-3.749254 0.18776,-0.378262 0.29273,-0.808186 0.43908,-1.212277 0.53862,-2.662627 0.14037,-5.419339 -0.57656,-7.974456 -0.63834,-1.865854 -1.47647,-3.595029 -2.49185,-5.192809 -0.60795,-0.816942 -1.2534,-1.380477 -2.14657,-1.584206 0,0 -1.05324,0.98735 -1.05324,0.98735 v 0 c 0.93082,0.14561 1.45139,0.673602 2.0925,1.481495 1.0095,1.580702 1.8463,3.291645 2.47455,5.143753 0.70977,2.521899 1.10768,5.245952 0.5325,7.86696 -0.15168,0.392083 -0.30336,0.784166 -0.45506,1.176248 -0.22314,0.325632 -0.50991,0.600572 -0.66942,0.976891 -0.0385,0.09077 0.31887,-0.0585 0.25307,0.0055 -0.88009,0.85389 -1.92862,1.201325 -3.03629,1.073588 -0.38504,-0.147009 -0.78323,-0.250898 -1.15512,-0.441025 -2.66649,-1.363179 -4.40643,-4.244125 -5.63932,-7.295269 -0.58508,-2.140418 -0.99926,-3.664807 -0.57348,-5.952035 0.47746,-2.564751 0.43835,-0.990528 1.28981,-3.255528 0.0363,-0.09656 -0.0653,-0.196918 -0.0979,-0.295373 0.35291,-0.278055 0.68299,-0.60392 1.05872,-0.834172 1.55338,-0.951957 3.43261,-0.78386 5.10948,-0.628682 0,0 1.0533,-0.994354 1.0533,-0.994354 z" />
    <path
       style="fill:#000080;fill-opacity:0.959391;stroke-width:0.496108"
       id="path63"
       d="m 443.70564,37.342718 c -2.17861,2.989316 -3.37229,6.987276 -3.89733,10.883617 -0.15545,1.15364 -0.18733,2.326699 -0.28099,3.490049 0.0103,4.160131 0.67403,8.355642 2.4852,11.948638 0.58755,1.165589 1.15158,1.864729 1.8747,2.853798 0,0 1.08586,-0.881464 1.08586,-0.881464 v 0 c -0.72849,-0.971996 -1.29006,-1.647838 -1.88076,-2.802645 -1.81865,-3.555518 -2.47012,-7.726434 -2.46932,-11.856511 0.0974,-1.158195 0.13248,-2.326549 0.29225,-3.474579 0.54207,-3.895134 1.7615,-7.904719 4.00208,-10.836475 0,0 -1.21169,0.675572 -1.21169,0.675572 z" />
    <path
       style="fill:#000080;fill-opacity:0.959391;stroke-width:0.496108"
       id="path65"
       d="m 446.752,44.058866 c -0.114,2.472576 -0.34923,4.960608 -0.28411,7.439251 0.0589,0.101974 0.0838,0.252917 0.17686,0.305915 0.44116,0.251116 1.24627,-0.599848 1.57013,-0.800564 0.95078,-0.58926 0.69735,-0.433382 1.77246,-0.68055 1.79257,0.0034 3.68133,0.877999 4.63797,2.839267 0.15138,0.310394 0.20386,0.677223 0.3058,1.015831 -0.23193,1.556775 -0.95779,2.445479 -2.14503,3.129533 -0.0861,0.04963 -0.17422,-0.138792 -0.26831,-0.12 -1.78766,0.581009 -0.91133,0.37745 -2.62402,0.640839 -0.81787,0.06416 -1.6044,-0.06962 -2.38886,-0.321869 0,0 -1.06165,0.973959 -1.06165,0.973959 v 0 c 0.80002,0.262755 1.60352,0.405284 2.43895,0.352305 2.29026,-0.326648 2.9254,-0.6319 5.09334,-2.17024 0.74985,-0.532089 1.49157,-1.159252 1.88017,-2.146172 0.14248,-0.361851 0.13219,-0.785414 0.19828,-1.178125 -0.11114,-0.352585 -0.17339,-0.733813 -0.33343,-1.057755 -0.98455,-1.992755 -2.88458,-2.919314 -4.71869,-2.975271 -1.0807,0.206559 -0.84717,0.05659 -1.7969,0.633197 -0.12133,0.07366 -1.29276,0.9995 -1.43942,0.973482 -0.0758,-0.01343 -0.0962,-0.144063 -0.14425,-0.216092 -0.0904,-2.471429 0.15246,-4.957831 0.29973,-7.419866 0,0 -1.16902,0.782925 -1.16902,0.782925 z" />
    <path
       style="fill:#000080;fill-opacity:0.959391;stroke-width:0.496108"
       id="path67"
       d="m 448.21605,44.022504 c 1.9377,-0.689705 3.90142,-1.28262 5.8552,-1.908378 0.34437,-0.105267 0.68874,-0.210527 1.03311,-0.315794 0,0 1.00585,-1.024564 1.00585,-1.024564 v 0 c -0.34523,0.105363 -0.69048,0.210725 -1.03572,0.316094 -1.94947,0.623965 -3.90444,1.228579 -5.84674,1.878637 0,0 -1.0117,1.054005 -1.0117,1.054005 z" />
    <path
       style="fill:#000080;fill-opacity:0.959391;stroke-width:0.496108"
       id="path69"
       d="m 457.59098,35.054889 c 1.98504,0.608706 3.70074,2.057304 4.72833,4.232985 0.31346,0.663681 0.52221,1.392034 0.78332,2.088047 1.32236,4.720646 1.52946,9.678295 0.76534,14.564986 -0.16082,1.028505 -0.40164,2.036358 -0.60245,3.05454 -0.75567,3.678923 -2.15135,6.979153 -3.96898,10.032829 0,0 1.17414,-0.696907 1.17414,-0.696907 v 0 c 1.79415,-3.069846 3.15895,-6.386618 3.90715,-10.061977 0.19901,-1.022464 0.438,-2.034755 0.59703,-3.067399 0.75719,-4.916827 0.53697,-9.903767 -0.7822,-14.653691 -0.26333,-0.706649 -0.47391,-1.445652 -0.79,-2.11995 -1.02989,-2.196994 -2.74898,-3.697827 -4.74471,-4.349119 0,0 -1.06697,0.975656 -1.06697,0.975656 z" />
    <path
       style="fill:#000080;fill-opacity:0.959391;stroke-width:0.733189"
       id="path73"
       d="m 42.684868,-33.874207 c -1.60987,-1.040075 -3.1673,-2.301745 -5.06303,-2.479309 -1.42683,-0.133647 -2.30003,0.13578 -3.6949,0.403139 -2.37126,0.6463 -4.23393,1.942401 -5.94875,4.063222 -1.38313,1.710608 -2.30866,6.603084 -2.77238,8.717955 -1.85294,10.787785 -0.77762,21.8711062 0.49142,32.6637296 0.57749,4.7512994 1.92958,9.2047954 3.92455,13.3932884 0.79158,1.661954 2.15334,4.161646 3.33487,5.582198 0.53353,0.641457 1.18701,1.13283 1.78051,1.699244 0.65316,0.314954 1.2738,0.742842 1.95947,0.944872 4.5865,1.351369 8.70882,-2.255174 12.21728,-5.048576 0.43773,-0.47575 0.87545,-0.9515 1.31317,-1.42725 0,0 -1.79474,0.968602 -1.79474,0.968602 v 0 c -0.43785,0.465709 -0.87569,0.931429 -1.31354,1.397149 -0.3638,1.033623 -0.12428,0.478965 -2.14652,1.547718 -2.83622,1.49893 -5.76705,1.985676 -8.6224,0.320458 -0.58907,-0.550221 -1.23769,-1.02452 -1.76722,-1.650662 -1.18609,-1.402455 -2.54815,-3.871476 -3.34161,-5.521655 -1.99855,-4.156409 -3.34141,-8.585599 -3.92653,-13.3075973 -1.27649,-10.7789624 -2.33063,-21.8552527 -0.40935,-32.6188257 0.6436,-2.824469 0.78803,-4.054241 1.83388,-6.60361 0.29173,-0.711143 0.83258,-1.284306 1.03294,-2.036649 0.0461,-0.172944 -0.56417,-0.02421 -0.45089,-0.148904 0.75366,-0.829546 2.15862,-1.156501 3.08349,-1.472374 3.96332,-0.819663 5.25956,-0.517914 8.63207,1.966772 0,0 1.64821,-1.352935 1.64821,-1.352935 z" />
    <path
       style="fill:#000080;fill-opacity:0.959391;stroke-width:0.733189"
       id="path75"
       d="m 65.226238,3.5866723 c -1.30031,-1.8007605 -3.11947,-4.5957268 -5.50179,-3.7592865 -0.46762,0.16418291 -0.85246,0.5534051 -1.27869,0.83010729 -0.90346,0.96077851 -1.95688,1.76148861 -2.71038,2.88233391 -0.43374,0.6451981 -0.57747,1.4991149 -0.76501,2.2873976 -1.02825,4.3219854 -0.36037,8.6967404 0.37125,12.9881214 0.27973,1.030226 0.47388,2.097031 0.8392,3.090675 0.91056,2.476633 2.90305,5.447617 5.39476,5.865505 0.4682,0.07851 0.94493,-0.05572 1.41739,-0.08363 3.80256,-1.979404 5.86807,-4.970703 6.2927,-9.716283 0.0826,-0.923574 0.0551,-1.85594 0.0827,-2.783911 -0.19994,-4.129548 -0.45573,-8.7386439 -2.88622,-12.0582076 -0.28568,-0.3901953 -0.66816,-0.6694348 -1.00223,-1.0041526 -0.27101,-0.1768584 -0.54202,-0.3537176 -0.81303,-0.5305775 0,0 -1.6286,1.362698 -1.6286,1.362698 v 0 c 0.26659,0.1610779 0.53318,0.3221551 0.79976,0.483233 0.32779,0.3137942 0.70468,0.5693647 0.98337,0.9413834 2.43357,3.248524 2.65367,7.8581153 2.84071,11.9225033 -0.0765,2.052356 -0.003,3.263905 -0.52062,5.229429 -0.18979,0.719937 -0.51948,1.380053 -0.77922,2.070073 -0.33282,0.567253 -0.80165,1.054936 -0.99848,1.701738 -0.051,0.16776 0.56534,-0.03984 0.45505,0.08403 -0.35219,0.395372 -0.85306,0.561059 -1.27958,0.841593 -0.45717,0.05208 -0.91476,0.212732 -1.37152,0.156082 -2.44966,-0.30379 -4.43862,-3.260769 -5.32601,-5.657826 -0.36438,-0.984314 -0.55738,-2.042324 -0.83607,-3.063487 -0.56664,-3.370911 -1.09219,-6.66674 -0.76254,-10.1216593 0.0893,-0.9359711 0.2443,-1.8678582 0.47409,-2.771143 0.19693,-0.77407 0.72397,-1.4345056 0.79991,-2.236662 0.0228,-0.241512 -0.37051,-0.2280962 -0.55578,-0.342144 0.40483,-0.3025038 0.76256,-0.7140863 1.21446,-0.9075128 2.30679,-0.98735162 4.12631,1.8099147 5.35922,3.5665506 0,0 1.69121,-1.2669862 1.69121,-1.2669862 z" />
    <path
       style="fill:#000080;fill-opacity:0.959391;stroke-width:0.733189"
       id="path77"
       d="m 74.022708,-0.00574115 c -0.49157,7.20587625 0.22409,14.43352615 0.66035,21.62114515 0.11163,2.856091 0.20118,3.697517 0.12479,6.356474 -0.0142,0.495634 -0.46612,1.741563 -0.10061,1.48316 2.00642,-1.418462 1.29591,-2.575808 1.09342,-4.461539 -0.0948,-0.882414 -0.14828,-1.770114 -0.22241,-2.655172 -0.0794,-4.579772 -0.41604,-9.372903 0.95201,-13.7729645 0.23735,-0.763391 0.57029,-1.4822644 0.85544,-2.2233977 0.89618,-1.6777223 1.63936,-3.6414531 2.89238,-5.0350521 0.26597,-0.2958083 0.70623,-1.07255604 0.91483,-0.7204055 0.99196,1.6745525 -2.67866,0.6618484 0.19647,1.2060178 0.30055,0.1509731 0.62682,0.2464476 0.90166,0.4529187 2.29116,1.7211743 2.49818,5.9113197 2.84588,8.6642593 0.24529,5.695017 0.42971,11.38594 0.82667,17.070313 0.0418,2.128975 -0.0351,1.157 0.17835,2.920843 0,0 1.72784,-1.179232 1.72784,-1.179232 v 0 c -0.21845,-1.733376 -0.13566,-0.770387 -0.19385,-2.89455 -0.41977,-5.683728 -0.62349,-11.373591 -0.84903,-17.0713659 -0.35798,-2.8717233 -0.58525,-7.0527808 -2.91853,-8.88529016 -0.28236,-0.22175159 -0.61935,-0.33156399 -0.92902,-0.49734599 -0.32407,-0.0800134 -0.65305,-0.34313901 -0.97222,-0.24004977 -3.5648,1.15137222 -4.72868,3.75454742 -6.37105,7.25598382 -0.28067,0.750984 -0.60934,1.4802817 -0.84201,2.2529498 -1.33464,4.4322032 -0.9807,9.2409332 -0.91143,13.8411022 0.0715,0.892147 0.1227,1.786811 0.21468,2.676453 0.1455,1.407269 -0.0676,3.788711 2.35107,2.162656 0.36793,-0.247348 0.0582,-0.983483 0.0646,-1.476088 0.0355,-2.748154 -0.0419,-3.362134 -0.17551,-6.341518 -0.44619,-7.191205 -1.15848,-14.438861 -0.54955,-21.6427801 0,0 -1.76519,1.13247495 -1.76519,1.13247495 z" />
    <path
       style="fill:#000080;fill-opacity:0.959391;stroke-width:0.733189"
       id="path79"
       d="m 93.888548,14.365525 c 3.58739,0.163637 7.120322,-0.563913 10.553612,-1.71024 3.95132,-1.763447 7.24113,-4.0664595 9.22634,-8.4974495 0.0843,-0.4759268 0.24564,-0.9420116 0.25299,-1.4277774 0.0352,-2.33069243 -1.56204,-4.3839046 -3.27854,-5.3329515 -0.50956,-0.2817356 -1.06948,-0.4200916 -1.60421,-0.6301368 -4.61347,-0.8756347 -7.37347,0.6083175 -10.559792,4.7071704 -2.63718,3.9809369 -3.35515,8.4197935 -3.42325,13.3174658 0.34028,4.098946 1.20015,8.431699 3.55185,11.666146 0.42463,0.584018 0.94135,1.069197 1.412022,1.603786 3.39597,3.364047 5.47284,3.411041 9.59896,1.96524 3.55254,-1.534749 6.43369,-4.383774 9.03745,-7.48644 0.5968,-0.86993 1.28721,-1.652249 1.82202,-2.577322 0,0 -1.81801,1.039241 -1.81801,1.039241 v 0 c -0.53782,0.896841 -1.19708,1.683215 -1.80017,2.519661 -2.48877,2.928211 -2.87007,3.658458 -5.73377,5.018131 -4.05965,1.486995 -6.08712,1.555332 -9.47479,-1.766022 -0.46459,-0.522033 -0.97521,-0.994243 -1.39378,-1.566101 -2.334372,-3.189267 -3.174322,-7.490583 -3.490282,-11.541875 0.0897,-4.8664732 0.83222,-9.261348 3.500392,-13.17731973 0.40286,-0.49767861 0.86425,-0.93957687 1.2086,-1.49303507 0.0669,-0.1075838 -0.43705,0.14857409 -0.33487,0.0887214 2.00016,-1.1715125 4.11172,-1.4338848 6.31018,-0.9389262 0.5245,0.195549 1.07291,0.3199774 1.57349,0.5866468 1.65779,0.88313712 3.22324,2.8504643 3.13952,5.1010559 -0.0175,0.4685813 -0.18363,0.9136108 -0.27545,1.3704162 -0.59289,1.2688641 -0.647,1.5496706 -1.49679,2.665448 -0.35778,0.4697742 -0.80558,0.8430856 -1.14856,1.3274358 -0.045,0.063556 0.27234,-0.050906 0.21286,-0.00611 -1.45999,1.1007439 -1.88764,1.2035879 -3.51302,1.9886889 -3.40197,1.172402 -6.915802,1.915696 -10.479962,1.725193 0,0 -1.57504,1.461212 -1.57504,1.461212 z" />
    <path
       style="fill:#000080;fill-opacity:0.959391;stroke-width:0.8"
       id="path85"
       d="m 139.60853,2.104184 c 4.34843,3.274873 8.86197,6.271582 12.85776,9.985005 2.32704,2.280045 4.83009,4.404497 6.8313,6.98788 0,0 1.96112,-1.298215 1.96112,-1.298215 v 0 c -2.0345,-2.575719 -4.5449,-4.708997 -6.88986,-6.99283 -3.99665,-3.715133 -8.52898,-6.687723 -12.82603,-10.031848 0,0 -1.93429,1.350008 -1.93429,1.350008 z" />
    <path
       style="fill:#000080;fill-opacity:0.959391;stroke-width:0.8"
       id="path87"
       d="m 158.92879,-0.547151 c -2.12357,3.018714 -3.82544,6.301045 -5.66045,9.496724 -1.83556,3.323643 -3.95711,6.485195 -6.20077,9.545405 -0.5405,0.857708 -1.18431,1.639367 -1.7644,2.468556 0,0 2.13333,-1.050519 2.13333,-1.050519 v 0 c 0.56909,-0.822556 1.1891,-1.60789 1.73402,-2.447744 2.22906,-3.070379 4.34166,-6.235297 6.17388,-9.560473 1.83706,-3.199884 3.53588,-6.49702 5.71983,-9.480556 0,0 -2.13544,1.028607 -2.13544,1.028607 z" />
    <path
       style="fill:#000080;fill-opacity:0.959391;stroke-width:0.733189"
       id="path89"
       d="m 190.68487,-33.874207 c -1.60987,-1.040075 -3.1673,-2.301745 -5.06303,-2.479309 -1.42683,-0.133647 -2.30003,0.13578 -3.6949,0.403139 -2.37126,0.6463 -4.23393,1.942401 -5.94875,4.063222 -1.38313,1.710608 -2.30866,6.603084 -2.77238,8.717955 -1.85294,10.787785 -0.77762,21.8711062 0.49142,32.6637296 0.57749,4.7512994 1.92958,9.2047954 3.92455,13.3932884 0.79158,1.661954 2.15334,4.161646 3.33487,5.582198 0.53353,0.641457 1.18701,1.13283 1.78051,1.699244 0.65316,0.314954 1.2738,0.742842 1.95947,0.944872 4.5865,1.351369 8.70882,-2.255174 12.21728,-5.048576 0.43773,-0.47575 0.87545,-0.9515 1.31317,-1.42725 0,0 -1.79474,0.968602 -1.79474,0.968602 v 0 c -0.43785,0.465709 -0.87569,0.931429 -1.31354,1.397149 -0.3638,1.033623 -0.12428,0.478965 -2.14652,1.547718 -2.83622,1.49893 -5.76705,1.985676 -8.6224,0.320458 -0.58907,-0.550221 -1.23769,-1.02452 -1.76722,-1.650662 -1.18609,-1.402455 -2.54815,-3.871476 -3.34161,-5.521655 -1.99855,-4.156409 -3.34141,-8.585599 -3.92653,-13.3075973 -1.27649,-10.7789624 -2.33063,-21.8552527 -0.40935,-32.6188257 0.6436,-2.824469 0.78803,-4.054241 1.83388,-6.60361 0.29173,-0.711143 0.83258,-1.284306 1.03294,-2.036649 0.0461,-0.172944 -0.56417,-0.02421 -0.45089,-0.148904 0.75366,-0.829546 2.15862,-1.156501 3.08349,-1.472374 3.96332,-0.819663 5.25956,-0.517914 8.63207,1.966772 0,0 1.64821,-1.352935 1.64821,-1.352935 z" />
    <path
       style="fill:#000080;fill-opacity:0.959391;stroke-width:0.733189"
       id="path91"
       d="m 213.22624,3.5866723 c -1.30031,-1.8007605 -3.11947,-4.5957268 -5.50179,-3.7592865 -0.46762,0.16418291 -0.85246,0.5534051 -1.27869,0.83010729 -0.90346,0.96077851 -1.95688,1.76148861 -2.71038,2.88233391 -0.43374,0.6451981 -0.57747,1.4991149 -0.76501,2.2873976 -1.02825,4.3219854 -0.36037,8.6967404 0.37125,12.9881214 0.27973,1.030226 0.47388,2.097031 0.8392,3.090675 0.91056,2.476633 2.90305,5.447617 5.39476,5.865505 0.4682,0.07851 0.94493,-0.05572 1.41739,-0.08363 3.80256,-1.979404 5.86807,-4.970703 6.2927,-9.716283 0.0826,-0.923574 0.0551,-1.85594 0.0827,-2.783911 -0.19994,-4.129548 -0.45573,-8.7386439 -2.88622,-12.0582076 -0.28568,-0.3901953 -0.66816,-0.6694348 -1.00223,-1.0041526 -0.27101,-0.1768584 -0.54202,-0.3537176 -0.81303,-0.5305775 0,0 -1.6286,1.362698 -1.6286,1.362698 v 0 c 0.26659,0.1610779 0.53318,0.3221551 0.79976,0.483233 0.32779,0.3137942 0.70468,0.5693647 0.98337,0.9413834 2.43357,3.248524 2.65367,7.8581153 2.84071,11.9225033 -0.0765,2.052356 -0.003,3.263905 -0.52062,5.229429 -0.18979,0.719937 -0.51948,1.380053 -0.77922,2.070073 -0.33282,0.567253 -0.80165,1.054936 -0.99848,1.701738 -0.051,0.16776 0.56534,-0.03984 0.45505,0.08403 -0.35219,0.395372 -0.85306,0.561059 -1.27958,0.841593 -0.45717,0.05208 -0.91476,0.212732 -1.37152,0.156082 -2.44966,-0.30379 -4.43862,-3.260769 -5.32601,-5.657826 -0.36438,-0.984314 -0.55738,-2.042324 -0.83607,-3.063487 -0.56664,-3.370911 -1.09219,-6.66674 -0.76254,-10.1216593 0.0893,-0.9359711 0.2443,-1.8678582 0.47409,-2.771143 0.19693,-0.77407 0.72397,-1.4345056 0.79991,-2.236662 0.0228,-0.241512 -0.37051,-0.2280962 -0.55578,-0.342144 0.40483,-0.3025038 0.76256,-0.7140863 1.21446,-0.9075128 2.30679,-0.98735162 4.12631,1.8099147 5.35922,3.5665506 0,0 1.69121,-1.2669862 1.69121,-1.2669862 z" />
    <path
       style="fill:#000080;fill-opacity:0.959391;stroke-width:0.733189"
       id="path93"
       d="m 222.02271,-0.00574115 c -0.49157,7.20587625 0.22409,14.43352615 0.66035,21.62114515 0.11163,2.856091 0.20118,3.697517 0.12479,6.356474 -0.0142,0.495634 -0.46612,1.741563 -0.10061,1.48316 2.00642,-1.418462 1.29591,-2.575808 1.09342,-4.461539 -0.0948,-0.882414 -0.14828,-1.770114 -0.22241,-2.655172 -0.0794,-4.579772 -0.41604,-9.372903 0.95201,-13.7729645 0.23735,-0.763391 0.57029,-1.4822644 0.85544,-2.2233977 0.89618,-1.6777223 1.63936,-3.6414531 2.89238,-5.0350521 0.26597,-0.2958083 0.70623,-1.07255604 0.91483,-0.7204055 0.99196,1.6745525 -2.67866,0.6618484 0.19647,1.2060178 0.30055,0.1509731 0.62682,0.2464476 0.90166,0.4529187 2.29116,1.7211743 2.49818,5.9113197 2.84588,8.6642593 0.24529,5.695017 0.42971,11.38594 0.82667,17.070313 0.0418,2.128975 -0.0351,1.157 0.17835,2.920843 0,0 1.72784,-1.179232 1.72784,-1.179232 v 0 c -0.21845,-1.733376 -0.13566,-0.770387 -0.19385,-2.89455 -0.41977,-5.683728 -0.62349,-11.373591 -0.84903,-17.0713659 -0.35798,-2.8717233 -0.58525,-7.0527808 -2.91853,-8.88529016 -0.28236,-0.22175159 -0.61935,-0.33156399 -0.92902,-0.49734599 -0.32407,-0.0800134 -0.65305,-0.34313901 -0.97222,-0.24004977 -3.5648,1.15137222 -4.72868,3.75454742 -6.37105,7.25598382 -0.28067,0.750984 -0.60934,1.4802817 -0.84201,2.2529498 -1.33464,4.4322032 -0.9807,9.2409332 -0.91143,13.8411022 0.0715,0.892147 0.1227,1.786811 0.21468,2.676453 0.1455,1.407269 -0.0676,3.788711 2.35107,2.162656 0.36793,-0.247348 0.0582,-0.983483 0.0646,-1.476088 0.0355,-2.748154 -0.0419,-3.362134 -0.17551,-6.341518 -0.44619,-7.191205 -1.15848,-14.438861 -0.54955,-21.6427801 0,0 -1.76519,1.13247495 -1.76519,1.13247495 z" />
    <path
       style="fill:#000080;fill-opacity:0.959391;stroke-width:0.733189"
       id="path95"
       d="m 241.88855,14.365525 c 3.58739,0.163637 7.12032,-0.563913 10.55361,-1.71024 3.95132,-1.763447 7.24113,-4.0664595 9.22634,-8.4974495 0.0843,-0.4759268 0.24564,-0.9420116 0.25299,-1.4277774 0.0352,-2.33069243 -1.56204,-4.3839046 -3.27854,-5.3329515 -0.50956,-0.2817356 -1.06948,-0.4200916 -1.60421,-0.6301368 -4.61347,-0.8756347 -7.37347,0.6083175 -10.55979,4.7071704 -2.63718,3.9809369 -3.35515,8.4197935 -3.42325,13.3174658 0.34028,4.098946 1.20015,8.431699 3.55185,11.666146 0.42463,0.584018 0.94135,1.069197 1.41202,1.603786 3.39597,3.364047 5.47284,3.411041 9.59896,1.96524 3.55254,-1.534749 6.43369,-4.383774 9.03745,-7.48644 0.5968,-0.86993 1.28721,-1.652249 1.82202,-2.577322 0,0 -1.81801,1.039241 -1.81801,1.039241 v 0 c -0.53782,0.896841 -1.19708,1.683215 -1.80017,2.519661 -2.48877,2.928211 -2.87007,3.658458 -5.73377,5.018131 -4.05965,1.486995 -6.08712,1.555332 -9.47479,-1.766022 -0.46459,-0.522033 -0.97521,-0.994243 -1.39378,-1.566101 -2.33437,-3.189267 -3.17432,-7.490583 -3.49028,-11.541875 0.0897,-4.8664732 0.83222,-9.261348 3.50039,-13.17731973 0.40286,-0.49767861 0.86425,-0.93957687 1.2086,-1.49303507 0.0669,-0.1075838 -0.43705,0.14857409 -0.33487,0.0887214 2.00016,-1.1715125 4.11172,-1.4338848 6.31018,-0.9389262 0.5245,0.195549 1.07291,0.3199774 1.57349,0.5866468 1.65779,0.88313712 3.22324,2.8504643 3.13952,5.1010559 -0.0175,0.4685813 -0.18363,0.9136108 -0.27545,1.3704162 -0.59289,1.2688641 -0.647,1.5496706 -1.49679,2.665448 -0.35778,0.4697742 -0.80558,0.8430856 -1.14856,1.3274358 -0.045,0.063556 0.27234,-0.050906 0.21286,-0.00611 -1.45999,1.1007439 -1.88764,1.2035879 -3.51302,1.9886889 -3.40197,1.172402 -6.9158,1.915696 -10.47996,1.725193 0,0 -1.57504,1.461212 -1.57504,1.461212 z" />
    <path
       style="fill:#000080;fill-opacity:0.959391;stroke-width:0.8"
       id="path97"
       d="m 67.989977,75.242872 c -0.753356,-3.6353 -0.996645,-7.33968 -1.381478,-11.0234 -0.517865,-4.42824 -0.672614,-8.90417 -0.262414,-13.34625 0.277122,-2.63761 1.862855,-4.39741 4.077744,-5.71993 0.226606,-0.13531 -0.411167,0.33102 -0.616751,0.49653 2.306864,-1.16673 4.911698,-1.85083 7.500856,-1.63128 2.422948,0.85347 4.12861,3.02419 5.303068,5.2202 1.576196,3.56686 2.073933,7.48349 2.880078,11.27172 0.675716,2.94901 1.199736,5.93768 1.908057,8.87839 0.404447,1.63572 0.769472,3.28177 1.095785,4.93468 0,0 2.023711,-1.20683 2.023711,-1.20683 v 0 c -0.322812,-1.65688 -0.684246,-3.30736 -1.100841,-4.94342 -0.708259,-2.93642 -1.257661,-5.91452 -1.925305,-8.86076 -0.812459,-3.80952 -1.327665,-7.74374 -2.90505,-11.33332 -1.208435,-2.26954 -2.960176,-4.46639 -5.425141,-5.41627 -2.605604,-0.29751 -5.260507,0.39707 -7.604858,1.52773 -2.125966,1.3161 -5.194478,2.74226 -6.481133,5.12019 -0.528895,0.97748 -0.571609,1.72088 -0.769914,2.80226 -0.369941,4.45504 -0.211123,8.93814 0.297154,13.37748 0.377105,3.69283 0.641365,7.39968 1.343009,11.05175 0,0 2.043423,-1.19947 2.043423,-1.19947 z" />
    <path
       style="fill:#000080;fill-opacity:0.959391;stroke-width:0.8"
       id="path99"
       d="m 67.917765,95.911632 c -3.133934,0.64584 -6.672314,2.38572 -7.91476,5.545378 -0.813488,2.06879 -0.477172,2.78172 -0.268306,4.94748 1.061942,3.21438 3.101117,6.28029 6.554746,7.25039 1.97529,0.55485 2.666498,0.20237 4.616348,-0.14738 2.538886,-1.29654 5.606496,-2.79023 6.064163,-5.9193 0.362388,-2.47767 -0.840835,-4.63148 -1.926277,-6.72932 -0.503567,-0.60051 -0.929445,-1.275858 -1.510701,-1.801538 -1.114104,-1.00757 -2.303917,-1.49809 -3.734972,-1.85263 -0.509937,-0.12634 -1.042737,-0.13035 -1.561935,-0.21054 -0.233497,-0.0361 -0.535172,0.0357 -0.695219,-0.13807 -0.09946,-0.10801 0.267819,-0.12043 0.401728,-0.18064 -0.312619,0.28083 -1.294175,0.6197 -0.937857,0.84248 0.457218,0.28588 1.028193,-0.32775 1.551212,-0.45899 1.492324,-0.37444 2.426703,-0.46421 3.959613,-0.79305 2.051812,-0.44014 2.614128,-0.63394 4.638116,-1.20525 1.251781,-0.20929 3.016803,-1.24277 4.329801,-0.54166 1.154606,0.61653 1.511015,2.28153 1.8741,3.37632 1.097987,4.937608 1.79864,9.949378 2.908388,14.890598 1.126025,4.85583 1.976168,9.76963 3.033812,14.63925 0.747323,3.31868 1.397906,6.66459 1.073925,10.06842 -0.582848,2.39966 -0.929997,5.54633 -3.028732,7.19786 -0.27028,0.21269 0.432478,-0.5349 0.648718,-0.80234 -0.495771,-0.0421 -1.003922,-0.008 -1.487311,-0.12621 -2.475722,-0.60366 -4.833596,-2.48414 -6.046755,-4.70268 -0.362053,-0.66209 -0.570829,-1.39712 -0.856244,-2.09568 -1.215621,-4.86021 -0.558866,-7.56126 1.736375,-11.83969 1.539054,-2.98544 3.968961,-5.14542 6.515048,-7.23901 1.260976,-1.14332 0.64081,-0.60141 1.856776,-1.62997 0,0 -2.140374,0.98636 -2.140374,0.98636 v 0 c -1.204374,1.0328 -0.587384,0.4929 -1.848715,1.62229 -2.544592,2.10868 -4.936455,4.3166 -6.460821,7.31477 -2.279639,4.33875 -2.874881,7.12795 -1.626212,12.01154 0.293693,0.7144 0.510503,1.46549 0.881079,2.1432 1.546119,2.82758 4.52464,4.76274 7.695937,5.08643 1.083497,-0.58078 2.233225,-1.0521 3.250491,-1.74235 1.823022,-1.23698 2.524165,-5.31747 2.957102,-7.32733 0.295493,-3.42313 -0.369459,-6.7859 -1.12755,-10.11979 -1.069956,-4.86523 -1.921467,-9.77733 -3.050638,-14.63065 -1.109947,-4.95334 -1.804328,-9.97681 -2.889403,-14.929238 -0.397178,-1.19536 -0.780639,-2.8767 -1.991347,-3.58275 -1.350306,-0.78747 -3.135244,0.22138 -4.441673,0.47554 -1.921552,0.54972 -2.668105,0.79877 -4.618296,1.21632 -1.515711,0.32453 -4.133217,0.52118 -5.520029,1.18722 -1.037992,0.49852 -1.983179,1.17081 -2.974769,1.75622 -0.04784,0.19323 -0.269602,0.42565 -0.143527,0.57971 0.08143,0.0995 2.230499,0.28901 2.273058,0.2985 2.229305,0.49719 3.861873,1.605138 5.155591,3.497348 1.052524,2.04528 2.234895,4.15676 1.818962,6.57122 -0.114534,0.66486 -0.642892,1.22266 -0.715054,1.89344 -0.02057,0.19119 0.614521,0.19166 0.476352,0.3254 -0.547685,0.53015 -1.323424,0.75671 -1.985136,1.13507 -1.891316,0.38948 -2.593559,0.76181 -4.529205,0.25946 -3.40391,-0.88342 -5.408696,-3.89502 -6.426915,-7.04142 -0.174583,-2.11616 -0.500408,-2.81862 0.350069,-4.82052 0.286735,-0.674928 0.89181,-1.178598 1.199083,-1.844438 0.0461,-0.0999 -0.420379,0.0127 -0.32695,-0.0454 1.336335,-0.83122 1.710197,-0.8022 3.134851,-1.12054 0,0 1.830239,-1.49985 1.830239,-1.49985 z" />
    <path
       style="fill:#000080;fill-opacity:0.959391;stroke-width:0.8"
       id="path101"
       d="m 97.185721,117.72961 c 2.941919,-1.21627 3.948019,0.59797 4.422759,3.22783 -0.009,1.31125 -0.39712,2.48546 -1.09998,3.58469 -0.25596,0.40031 -0.791194,0.67333 -0.849113,1.14493 -0.01134,0.0924 0.118202,0.1438 0.177303,0.2157 0.77155,-0.5015 1.54311,-1.00299 2.31466,-1.50449 0.15709,-0.12051 0.63555,-0.47204 0.47126,-0.36155 -0.43086,0.28976 -0.96467,0.48091 -1.27153,0.89975 -0.16658,0.22736 0.52711,-0.20925 0.80405,-0.26168 0.93939,-0.17785 1.10922,-0.0425 2.0686,0.14584 2.49379,0.92856 3.75879,3.0742 3.02374,5.73008 -0.1674,0.60485 -0.49628,1.15289 -0.74443,1.72934 -0.40297,0.50479 -0.82184,0.99729 -1.20892,1.51437 -0.0673,0.0899 0.35737,-0.2494 0.2469,-0.22923 -0.63721,0.11637 -1.23148,0.42142 -1.87076,0.52577 -1.67447,0.27333 -3.32356,-0.002 -4.938971,-0.40666 -0.235064,-0.1281 -0.470127,-0.2562 -0.70519,-0.3843 0,0 -1.919676,1.38528 -1.919676,1.38528 v 0 c 0.252046,0.14024 0.504093,0.28049 0.75614,0.42074 4.680267,1.22276 8.751737,0.41863 11.709667,-3.90058 0.23895,-0.59641 0.56099,-1.16592 0.71686,-1.78922 0.69224,-2.76825 -0.63588,-5.00523 -3.19513,-6.02952 -2.52883,-0.59778 -3.31212,0.12638 -5.63224,1.63586 -0.16895,0.10992 -0.652659,0.46579 -0.470184,0.38019 0.599424,-0.28119 1.154754,-0.64812 1.732134,-0.97218 0.11818,0.34089 0.0263,0.24983 0.30746,-0.14982 0.96916,-1.37767 1.6677,-2.78277 1.59592,-4.52483 -0.51977,-2.67329 -1.59929,-4.72195 -4.671504,-3.60175 0,0 -1.769825,1.57544 -1.769825,1.57544 z" />
    <path
       style="fill:#000080;fill-opacity:0.959391;stroke-width:0.8"
       id="path103"
       d="m 92.671066,111.66789 c -0.330106,0.27567 -1.12381,0.41818 -0.990317,0.82701 0.124067,0.37996 0.764131,-0.23799 1.154296,-0.32481 1.683489,-0.37462 3.4276,-0.43276 5.143695,-0.49959 2.50101,-0.0737 4.9899,0.11782 7.49225,0.10302 1.89811,0.14922 3.90282,-0.36851 5.76439,0.0857 0,0 1.88965,-1.43348 1.88965,-1.43348 v 0 c -1.85547,-0.54965 -3.9072,0.033 -5.81789,-0.12546 -2.50555,0.0213 -4.99396,-0.16357 -7.497729,-0.10751 -1.686849,0.0581 -4.860522,0.0359 -6.350029,0.75193 -1.022564,0.49159 -1.969487,1.12708 -2.954231,1.69062 0,0 2.165915,-0.96746 2.165915,-0.96746 z" />
    <path
       style="fill:#000080;fill-opacity:0.959391;stroke-width:0.8"
       id="path105"
       d="m 250.97374,-57.711347 c 2.37428,3.406929 4.93125,6.682109 7.40622,10.015912 3.6478,4.360338 5.80799,9.51329 7.8369,14.75018 2.38402,5.86071 4.48902,11.819626 6.42782,17.840139 1.06115,3.433688 2.13756,6.9006 2.61059,10.476639 0.23534,1.779192 0.23237,3.034337 0.29065,4.821766 0.14344,5.095286 -0.24467,10.157905 -0.90599,15.204499 -0.7077,5.443712 -1.68538,10.853174 -2.90532,16.204864 -0.98916,4.6421 -1.90551,9.29276 -3.21195,13.85866 -1.31662,4.52379 -2.72385,8.99648 -4.69924,13.27786 -1.59778,2.81505 -3.024,5.76915 -4.89112,8.42169 0,0 2.11647,-1.04328 2.11647,-1.04328 v 0 c 1.81485,-2.68557 3.28561,-5.60537 4.84194,-8.44248 1.95827,-4.29293 3.34639,-8.77675 4.6691,-13.30179 1.30326,-4.56983 2.22229,-9.22226 3.20429,-13.86893 1.21237,-5.35642 2.18284,-10.768318 2.88191,-16.216369 0.66667,-5.061325 1.0689,-10.137427 0.90678,-15.248506 -0.0652,-1.834017 -0.0622,-3.022389 -0.31033,-4.848186 -0.48694,-3.583121 -1.57471,-7.053876 -2.63964,-10.495898 -1.94958,-6.020969 -4.06503,-11.980609 -6.43654,-17.85006 -2.03059,-5.258596 -4.20508,-10.427915 -7.85412,-14.812606 -2.46436,-3.332492 -5.02531,-6.598009 -7.35266,-10.028775 0,0 -1.98576,1.284671 -1.98576,1.284671 z" />
    <path
       style="fill:#000080;fill-opacity:0.959391;stroke-width:0.8"
       id="path109"
       d="m 33.592838,-61.817936 c -2.075577,3.806324 -4.460954,7.420894 -6.495864,11.250282 -2.296044,5.090967 -4.145034,10.367906 -6.047023,15.614678 -2.060491,5.969847 -3.341428,12.184296 -4.327556,18.412402 -0.862911,5.900257 -2.045217,11.736682 -2.456951,17.691273 -0.692756,5.986293 -0.36735,11.974357 0.03843,17.962002 0.780727,6.358811 1.990437,12.665901 3.323787,18.930521 1.052827,4.50499 2.612886,8.91488 4.596757,13.09455 1.600145,3.01833 3.336235,5.94506 5.539408,8.56058 1.291471,1.63695 2.723516,3.1429 4.265111,4.54299 0.772254,0.94075 0.425085,0.42881 1.02935,1.544 0,0 1.991052,-1.27076 1.991052,-1.27076 v 0 c -0.631996,-1.16399 -0.270947,-0.62941 -1.069886,-1.61262 -1.535147,-1.39301 -2.976399,-2.87772 -4.265554,-4.50508 -2.19777,-2.59428 -3.923076,-5.50388 -5.519832,-8.50133 -1.974689,-4.16144 -3.54434,-8.54613 -4.598386,-13.03037 -1.337898,-6.25414 -2.555327,-12.55169 -3.300986,-18.906047 -0.409648,-5.979288 -0.727523,-11.958008 -0.02155,-17.935022 0.42446,-5.946335 1.589778,-11.77822 2.460369,-17.670228 0.989596,-6.219606 2.263829,-12.425896 4.356306,-18.378057 1.904395,-5.240748 3.732088,-10.522546 6.070897,-15.590127 2.052098,-3.831763 4.42885,-7.465355 6.548717,-11.258911 0,0 -2.116604,1.055274 -2.116604,1.055274 z" />
    <path
       style="fill:#000080;fill-opacity:0.959391;stroke-width:0.8"
       id="path111"
       d="m 206.00657,72.651032 c -0.73578,-4.10522 -1.02211,-8.27143 -1.4664,-12.41437 -0.49359,-3.33798 0.18942,-6.54462 0.8142,-9.7975 0.53708,-2.69658 1.68372,-4.39588 3.84368,-6.03525 0.3312,-0.22785 0.62383,-0.84128 0.9936,-0.68355 0.36628,0.15625 -1.08061,0.30836 -0.97382,0.69199 0.10153,0.36473 0.68496,-0.32438 1.0383,-0.46033 1.15908,-0.44594 2.22149,-0.4986 3.45081,-0.53342 3.74691,-0.1332 4.43533,1.23665 6.10841,4.21537 1.36771,2.50526 1.62887,5.36295 1.83401,8.1574 0.13659,2.58128 0.1098,5.16747 0.10114,7.7513 -0.003,2.08693 0.2132,4.20591 0.65952,6.24692 0.36669,1.56899 0.81473,3.16071 0.71458,4.78341 0,0 2.0654,-1.16582 2.0654,-1.16582 v 0 c 0.0474,-1.64226 -0.36769,-3.24559 -0.75113,-4.83261 -0.43049,-2.02813 -0.65574,-4.12482 -0.64398,-6.19707 0.009,-2.58878 0.0307,-5.18018 -0.11286,-7.76605 -0.22159,-2.82525 -0.49836,-5.71444 -1.88906,-8.24384 -1.6885,-3.0034 -2.45628,-4.53628 -6.25366,-4.42289 -3.78542,0.0407 -5.27185,1.07125 -8.48372,3.43514 -2.12977,1.70073 -3.24541,3.47382 -3.75949,6.182 -0.63044,3.26914 -1.2688,6.49556 -0.75877,9.84595 0.45217,4.15472 0.73667,8.33091 1.44047,12.4541 0,0 2.02877,-1.21088 2.02877,-1.21088 z" />
    <path
       style="fill:#000080;fill-opacity:0.959391;stroke-width:0.8"
       id="path113"
       d="m 199.7805,96.371292 c -3.67221,-0.77131 -6.78162,0.70405 -9.63777,2.99823 -0.4544,0.365 -0.73059,0.908328 -1.09589,1.362488 -1.36171,2.73679 -1.74053,6.21951 0.12788,8.86036 0.31955,0.45166 0.76391,0.80057 1.14586,1.20085 3.07164,2.44091 5.86378,1.61981 9.02374,-0.13743 1.05694,-0.77507 2.1801,-1.46711 3.17082,-2.3252 0.39736,-0.34415 0.67761,-0.8079 0.95914,-1.25183 1.15694,-1.82432 1.13149,-3.49366 0.6968,-5.5274 -0.9062,-2.802988 -2.67653,-4.213548 -5.01248,-5.759278 -0.43359,-0.34854 -1.88571,-1.66444 -1.25508,1.34039 0.0914,0.43538 0.88595,0.10432 1.33079,0.10051 2.03223,-0.0174 3.99013,-0.46913 5.95504,-0.9309 2.75277,-0.7008 5.48549,-1.5435 7.93318,-3.00675 0.76651,-0.5283 1.38962,-1.38817 2.29953,-1.58492 0.82592,-0.17859 -1.47273,0.88563 -2.02464,1.52549 -0.18425,0.2136 -0.0113,0.56408 -0.0209,0.84601 -0.0584,1.71753 -0.12027,3.41271 -0.0962,5.13257 0.13684,4.393148 0.27265,8.782008 0.6288,13.163248 0.21856,4.2565 0.82728,8.47642 1.21253,12.71645 0.0118,2.81079 0.79072,6.83259 -0.54051,9.44602 -0.20673,0.40586 -0.54941,0.72662 -0.82412,1.08993 -0.39608,0.26155 -0.7189,0.71383 -1.18822,0.78464 -0.26803,0.0404 0.71405,-0.59435 0.45496,-0.674 -0.53907,-0.16574 -1.10219,0.26195 -1.66473,0.30206 -1.6391,0.11684 -3.07455,-0.36585 -4.57313,-0.937 -2.59564,-1.54673 -3.1231,-3.54911 -2.25312,-6.33218 1.45184,-2.57598 3.62251,-4.64776 5.6026,-6.81579 1.69168,-1.49039 3.27238,-3.07141 4.79243,-4.73533 0.89609,-1.12733 0.44533,-0.5885 1.34847,-1.61967 0,0 -2.12976,1.02067 -2.12976,1.02067 v 0 c -0.89193,1.03781 -0.44247,0.50112 -1.3464,1.61171 -1.52206,1.65914 -3.13125,3.20991 -4.78763,4.73346 -1.98726,2.17991 -4.1876,4.26805 -5.5561,6.9117 -0.80752,2.91004 -0.22163,4.99606 2.44657,6.62301 4.33785,1.70427 7.15156,1.20542 10.96293,-1.90805 0.26182,-0.38502 0.58921,-0.73283 0.78546,-1.15505 1.30055,-2.79811 0.4763,-6.56224 0.47833,-9.51616 -0.39843,-4.23821 -0.98008,-8.45956 -1.21137,-12.71424 -0.35929,-4.37676 -0.48893,-8.76186 -0.61709,-13.150968 -0.0124,-1.72505 0.0754,-3.42368 0.13256,-5.14574 0.01,-0.29826 0.30664,-0.8674 0.01,-0.89524 -0.75953,-0.0712 -1.5113,1.05606 -2.18152,0.69171 -0.55797,-0.30333 1.0836,-0.66269 1.6254,-0.99403 -2.43156,1.50814 -5.15438,2.38397 -7.91746,3.09017 -1.78435,0.43368 -2.24697,0.6005 -4.07367,0.82686 -0.60273,0.0747 -1.20908,0.13352 -1.81634,0.14371 -0.43681,0.007 -0.88671,-0.20893 -1.30744,-0.0913 -0.99651,0.27865 -1.94613,0.7315 -2.84083,1.25127 -0.10775,0.0626 0.19843,0.15078 0.29764,0.22616 2.31182,1.49022 4.051,2.82639 4.92522,5.594788 0.28123,1.38327 0.48068,2.63557 -0.0599,4.00226 -0.18718,0.4732 -0.44528,0.91876 -0.72802,1.34186 -0.28795,0.4309 -0.83938,0.70984 -0.97695,1.20951 -0.0648,0.23541 0.46783,-0.14001 0.70175,-0.21002 -3.03452,1.77793 -5.79468,2.73278 -8.83196,0.38021 -0.36986,-0.38088 -0.80129,-0.71041 -1.10959,-1.14264 -1.83712,-2.57555 -1.40063,-5.99461 0.003,-8.620838 0.37525,-0.43502 0.85136,-0.80031 1.12573,-1.30505 0.10609,-0.19516 -0.79383,0.39677 -0.5874,0.31473 0.51829,-0.20597 0.99588,-0.51235 1.52538,-0.68749 1.51538,-0.50124 3.10856,-0.57354 4.66439,-0.25528 0,0 1.89991,-1.41329 1.89991,-1.41329 z" />
    <path
       style="fill:#000080;fill-opacity:0.959391;stroke-width:0.8"
       id="path115"
       d="m 226.57484,117.51901 c 1.30948,-2.53445 2.39027,-5.16549 3.09313,-7.93056 0.20165,-1.32387 1.47522,-4.46976 -1.5662,-0.0827 -0.18718,0.26999 0.0249,0.65661 0.032,0.98505 0.008,0.39632 0.01,0.79276 0.0145,1.18914 0.006,2.29529 -0.0159,4.59052 -0.027,6.88577 -0.0104,2.01153 -0.0108,4.0231 -0.013,6.03465 -0.0278,0.87085 -0.0125,1.72305 0.0997,2.58583 0,0 2.04343,-1.19947 2.04343,-1.19947 v 0 c -0.10206,-0.85277 -0.11255,-1.69764 -0.0904,-2.55708 -6e-5,-2.01062 0.003,-4.02123 0.01,-6.03183 0.01,-2.29567 0.0289,-4.59134 0.022,-6.88705 -0.008,-0.84061 -0.0153,-2.18923 -0.0418,-2.19639 -2.50958,-0.67743 -2.24428,0.94508 -2.55801,2.3894 -0.71444,2.75536 -1.80592,5.37437 -3.11869,7.89952 0,0 2.1004,-1.08428 2.1004,-1.08428 z" />
    <path
       style="fill:#000080;fill-opacity:0.959391;stroke-width:0.8"
       id="path117"
       d="m 224.10818,128.27879 c 1.85162,-0.55341 3.7685,-0.81307 5.65221,-1.22192 0,0 1.80707,-1.51387 1.80707,-1.51387 v 0 c -1.87749,0.42807 -3.79565,0.66579 -5.65012,1.20182 0,0 -1.80916,1.53397 -1.80916,1.53397 z" />
    <path
       style="fill:#000080;fill-opacity:0.959391;stroke-width:0.8"
       id="path119"
       d="m 219.49837,105.20426 c 2.93409,-0.48654 5.84827,-1.07602 8.77039,-1.62736 2.2257,-0.39189 4.41648,-0.92968 6.65836,-1.23248 1.62792,-0.12385 3.29209,-0.37574 4.92172,-0.17152 0,0 1.87391,-1.45802 1.87391,-1.45802 v 0 c -1.63784,-0.26247 -3.32877,0.0262 -4.97172,0.12849 -2.25103,0.29166 -4.44784,0.82596 -6.67782,1.23183 -2.91421,0.54925 -5.81925,1.13992 -8.7446,1.62922 0,0 -1.83024,1.49984 -1.83024,1.49984 z" />
  </g>
</svg>
