<?xml version="1.0" encoding="UTF-8" standalone="no"?>
<!-- Created with Inkscape (http://www.inkscape.org/) -->

<svg
   xmlns:dc="http://purl.org/dc/elements/1.1/"
   xmlns:cc="http://creativecommons.org/ns#"
   xmlns:rdf="http://www.w3.org/1999/02/22-rdf-syntax-ns#"
   xmlns:svg="http://www.w3.org/2000/svg"
   xmlns="http://www.w3.org/2000/svg"
   xmlns:sodipodi="http://sodipodi.sourceforge.net/DTD/sodipodi-0.dtd"
   xmlns:inkscape="http://www.inkscape.org/namespaces/inkscape"
   width="477.24557"
   height="263.8837"
   id="svg2"
   version="1.1"
   inkscape:version="0.48.5 r10040"
   sodipodi:docname="Novo documento 1">
  <defs
     id="defs4" />
  <sodipodi:namedview
     id="base"
     pagecolor="#ffffff"
     bordercolor="#666666"
     borderopacity="1.0"
     inkscape:pageopacity="0.0"
     inkscape:pageshadow="2"
     inkscape:zoom="0.93800507"
     inkscape:cx="489.61042"
     inkscape:cy="23.972741"
     inkscape:document-units="px"
     inkscape:current-layer="layer1"
     showgrid="false"
     fit-margin-top="0"
     fit-margin-left="0"
     fit-margin-right="0"
     fit-margin-bottom="0"
     inkscape:window-width="1440"
     inkscape:window-height="885"
     inkscape:window-x="0"
     inkscape:window-y="0"
     inkscape:window-maximized="1" />
  <metadata
     id="metadata7">
    <rdf:RDF>
      <cc:Work
         rdf:about="">
        <dc:format>image/svg+xml</dc:format>
        <dc:type
           rdf:resource="http://purl.org/dc/dcmitype/StillImage" />
        <dc:title></dc:title>
      </cc:Work>
    </rdf:RDF>
  </metadata>
  <g
     inkscape:label="Camada 1"
     inkscape:groupmode="layer"
     id="layer1"
     transform="translate(-118.36839,-24.809105)">
    <path
       style="fill:#000080;fill-opacity:0.98293511;stroke:#fe0000;stroke-width:0;stroke-miterlimit:4;stroke-opacity:1;stroke-dasharray:none"
       id="path3453"
       d="m 464.16077,29.666347 c -1.58569,-1.104936 -3.33185,-1.952608 -5.159,-2.570371 -2.37065,-0.635217 -4.8463,-0.653148 -7.28359,-0.706839 -3.11727,-0.03936 -6.23493,-0.02198 -9.35236,-0.01614 -4.31364,0.0081 -8.62728,0.0095 -12.94093,0.01064 -6.13977,0.252887 -12.27863,0.490861 -18.42254,0.617989 -7.19344,0.33496 -14.38763,0.612331 -21.58751,0.756881 -7.70231,0.0123 -15.39716,0.223165 -23.09431,0.480041 -8.33485,0.195229 -16.66756,0.495797 -24.99357,0.928179 -8.95936,0.422465 -17.89716,1.239457 -26.81356,2.197917 -9.07659,1.02602 -18.10307,2.434407 -27.11339,3.922873 -8.27374,1.231296 -16.42717,3.089948 -24.57459,4.956263 -7.45295,1.750685 -14.89522,3.561727 -22.31406,5.453467 -7.11016,1.707795 -14.13655,3.702372 -21.08407,5.977544 -5.27108,1.551629 -10.23429,3.882051 -15.17439,6.245141 -3.41714,1.616025 -6.78966,3.320183 -10.19357,4.962459 -2.28277,1.037969 -4.51466,2.149548 -6.64611,3.472597 -2.06759,1.446713 -4.15705,2.856799 -6.26531,4.243241 -2.09161,1.300685 -4.24382,2.477003 -6.22252,3.950602 -1.77341,1.231188 -3.53764,2.473924 -5.30365,3.715565 -1.88639,1.289762 -3.6208,2.776259 -5.30265,4.318089 -1.66027,1.271547 -3.19298,2.669899 -4.701,4.113107 -1.63169,1.621323 -3.43252,3.055121 -5.0965,4.640612 -1.55101,1.560043 -3.05809,3.162943 -4.58901,4.742637 -1.4996,1.860184 -2.98286,3.720092 -4.37795,5.661049 -1.59889,2.48125 -3.42037,4.79685 -5.28489,7.07986 -2.3948,2.82489 -4.50797,5.87903 -6.54965,8.96512 -2.18213,3.43076 -3.83263,7.14918 -5.44768,10.86842 -1.58876,3.7766 -2.8342,7.69866 -3.91009,11.64954 -1.15986,4.28291 -2.20285,8.5976 -2.95171,12.97215 -0.52709,4.25297 -0.95357,8.5215 -1.24926,12.79745 -0.26533,3.85163 -0.32901,7.70294 -0.0898,11.55524 0.12597,3.26484 0.83338,6.46791 1.76335,9.58861 1.29397,3.55936 2.46852,7.14766 3.54648,10.77875 1.28366,4.53035 2.69222,9.00871 4.53043,13.34613 2.12027,4.78261 4.68987,9.31266 7.47188,13.73445 2.94592,4.91647 6.45311,9.46204 10.29821,13.70197 4.10062,4.32813 8.84548,7.94097 13.90293,11.06711 5.37918,3.24303 11.31156,5.34907 17.09298,7.73189 5.83273,2.36899 11.35369,5.40064 16.94227,8.27711 5.56568,2.99128 11.51141,5.16481 17.51777,7.07852 7.04297,2.13943 14.24991,3.6302 21.49265,4.89703 6.97455,1.15232 13.89762,2.58177 20.81181,4.04639 7.36873,1.58298 14.85836,2.30128 22.36958,2.72726 8.12988,0.55312 16.27313,0.83233 24.41901,0.99259 8.00854,0.22856 16.00563,0.70095 24.00748,1.08001 8.67443,0.34252 17.35777,0.55641 26.0387,0.42849 8.3634,-0.16938 16.72105,-0.46724 25.07031,-0.98248 9.40847,-0.76157 18.82194,-1.4751 28.21254,-2.4363 8.86527,-0.79788 17.68785,-1.98318 26.52353,-3.0463 9.32644,-1.11225 18.62277,-2.45509 27.90725,-3.87091 9.13762,-1.30032 18.18932,-3.10186 27.16805,-5.22589 9.4253,-2.38666 18.67895,-5.43913 27.81133,-8.76444 5.90625,-2.25095 11.83985,-4.47651 17.60798,-7.06965 3.00561,-1.3512 5.50731,-2.64736 8.45263,-4.1264 8.02974,-3.95355 15.59605,-8.70205 22.82414,-13.96117 5.75442,-4.12146 10.5533,-9.30094 14.973,-14.78318 3.72182,-4.61015 6.48014,-9.78392 8.65917,-15.2646 2.00844,-5.1427 2.97075,-10.57342 3.84994,-15.99536 0.64086,-4.71191 1.43852,-9.40115 2.02223,-14.12062 0.49981,-4.40586 0.59441,-8.8423 0.65673,-13.27161 0.14768,-3.81302 -0.0525,-7.60999 -0.31878,-11.41124 -0.37712,-4.07077 -1.05736,-8.10227 -1.6757,-12.14069 -0.76819,-4.49049 -1.65281,-8.96051 -2.74697,-13.38331 -1.49044,-4.93946 -3.25475,-9.79187 -5.14791,-14.58963 -1.8065,-4.77464 -3.86405,-9.43627 -6.34559,-13.89769 -2.52203,-4.485334 -5.54927,-8.642273 -8.56369,-12.801165 -2.98954,-4.31844 -6.57459,-8.108515 -10.41914,-11.660876 -3.4763,-3.212282 -7.3508,-5.926658 -11.17332,-8.699452 -3.21559,-2.287516 -6.41479,-4.599394 -9.57078,-6.968669 -2.8129,-2.123168 -5.76745,-4.063075 -8.929,-5.62419 -2.90878,-1.245712 -5.62226,-2.866831 -8.43081,-4.30746 -2.53553,-1.358541 -5.16513,-2.531886 -7.8091,-3.662167 -2.31916,-0.909044 -4.37668,-2.306034 -6.51931,-3.545849 -2.23643,-1.269963 -4.71089,-2.049386 -7.16086,-2.794551 -2.54392,-0.72214 -5.04323,-1.569846 -7.5081,-2.526069 -2.47185,-0.982614 -5.05824,-1.575302 -7.64216,-2.173228 -2.67135,-0.440846 -5.27565,-1.135881 -7.85844,-1.933258 -2.12284,-0.852522 -4.34536,-1.391891 -6.55805,-1.948985 -1.68314,-0.433159 -3.4104,-0.602964 -5.14096,-0.686639 -1.33944,0.0795 -2.62329,-0.240709 -3.92106,-0.509545 -0.76301,-0.172398 -1.54309,-0.230864 -2.32236,-0.266329 -0.60832,-0.01794 -1.217,-0.01377 -1.82551,-0.01209 -0.26826,9.05e-4 -0.53652,0.0017 -0.80478,0.0024 -1.06609,0.0026 -1.06974,-1.505096 -0.004,-1.507678 l 0,0 c 0.26809,-6.49e-4 0.53619,-0.0015 0.80428,-0.0024 0.63288,-0.0017 1.26595,-0.006 1.89862,0.01366 0.85899,0.03955 1.71846,0.107641 2.55968,0.296188 1.22294,0.254096 2.42425,0.565004 3.68806,0.479889 1.82996,0.0896 3.65616,0.27261 5.43589,0.730509 2.23813,0.563812 4.48706,1.108973 6.6346,1.970428 2.54833,0.786779 5.11773,1.470564 7.75366,1.904996 2.65378,0.614374 5.30922,1.227856 7.84795,2.236645 2.42932,0.944353 4.89392,1.776983 7.40166,2.489248 2.55976,0.780854 5.14233,1.599829 7.4771,2.932117 2.08935,1.210958 4.09497,2.575932 6.35662,3.464321 2.67601,1.145057 5.33819,2.332251 7.90498,3.707223 2.80077,1.440012 5.50946,3.053487 8.41098,4.297458 3.24145,1.60873 6.28067,3.586062 9.1653,5.76967 3.14914,2.36463 6.34213,4.671013 9.55083,6.953945 3.87064,2.807807 7.79206,5.558986 11.31134,8.812621 3.91672,3.620508 7.5686,7.484709 10.61659,11.883305 3.04973,4.207641 6.11016,8.414959 8.66069,12.953413 2.5116,4.520354 4.60147,9.239894 6.43034,14.076984 1.91683,4.86033 3.70579,9.77535 5.20901,14.78096 1.10432,4.46713 1.99909,8.98152 2.77369,13.51708 0.62445,4.07913 1.31125,8.15139 1.68938,12.2635 0.26923,3.84332 0.46997,7.68271 0.32231,11.53783 -0.0632,4.4841 -0.16048,8.97535 -0.668,13.43556 -0.58678,4.73815 -1.38573,9.44628 -2.03025,14.17677 -0.8968,5.53019 -1.88657,11.06739 -3.93738,16.31158 -2.23893,5.61904 -5.06858,10.92636 -8.88637,15.6535 -4.50451,5.58388 -9.39746,10.85708 -15.25969,15.05595 -7.2956,5.30599 -14.93088,10.09949 -23.03451,14.08932 -3.00366,1.50803 -5.47311,2.78834 -8.53888,4.16636 -5.79266,2.60371 -11.75121,4.83882 -17.6825,7.09903 -9.18795,3.34439 -18.49718,6.41599 -27.98008,8.81493 -9.01845,2.13274 -18.10987,3.94307 -27.28779,5.24914 -9.30017,1.41818 -18.61222,2.76322 -27.95442,3.87735 -8.84454,1.06418 -17.67599,2.25052 -26.55014,3.04926 -9.41082,0.96296 -18.84446,1.67877 -28.27321,2.44128 -8.37281,0.51636 -16.75402,0.81564 -25.141,0.98517 -8.71213,0.12745 -17.42661,-0.0853 -26.13218,-0.43002 -7.98797,-0.37846 -15.97117,-0.84998 -23.9658,-1.07861 -8.16449,-0.16073 -16.32635,-0.44048 -24.4748,-0.99472 -7.58744,-0.43115 -15.1531,-1.15846 -22.59657,-2.75757 -6.8967,-1.46093 -13.80222,-2.88699 -20.75917,-4.03621 -7.30968,-1.27888 -14.5831,-2.78491 -21.69074,-4.94569 -6.08571,-1.9407 -12.10987,-4.14408 -17.74988,-7.17446 -5.55079,-2.85721 -11.03388,-5.86972 -16.82682,-8.22373 -5.85709,-2.41436 -11.86551,-4.55169 -17.31177,-7.84372 -5.17436,-3.20519 -10.03344,-6.90067 -14.22672,-11.3367 -3.90152,-4.30735 -7.46604,-8.91942 -10.45725,-13.91166 -2.82451,-4.49052 -5.43236,-9.09229 -7.58407,-13.9494 -1.85731,-4.39036 -3.29073,-8.91958 -4.58741,-13.50491 -1.0779,-3.63099 -2.25499,-7.21785 -3.54627,-10.77805 -0.95905,-3.23112 -1.69156,-6.54575 -1.82302,-9.92516 -0.24222,-3.91806 -0.17998,-7.83526 0.0906,-11.75255 0.29964,-4.32632 0.72987,-8.64547 1.26734,-12.94809 0.75902,-4.42194 1.80905,-8.7846 2.98311,-13.11397 1.09708,-4.01992 2.36239,-8.01127 3.98177,-11.85354 1.65018,-3.79978 3.34043,-7.5969 5.57326,-11.09985 2.07002,-3.12778 4.21256,-6.22281 6.63926,-9.08682 1.84497,-2.25908 3.64696,-4.55031 5.22837,-7.00614 1.43799,-2.000568 2.96657,-3.918531 4.51953,-5.830346 1.54519,-1.594395 3.06575,-3.212794 4.6327,-4.785914 1.66591,-1.581402 3.45927,-3.02069 5.09318,-4.637445 1.51605,-1.450218 3.0537,-2.860202 4.72462,-4.135223 1.73009,-1.585255 3.51469,-3.113034 5.45429,-4.440037 1.75522,-1.233618 3.50778,-2.469602 5.27097,-3.691935 2.00391,-1.488341 4.17285,-2.692109 6.29385,-4.000514 2.11949,-1.393757 4.21863,-2.81332 6.29918,-4.264874 2.17761,-1.348921 4.45386,-2.490667 6.78551,-3.549164 3.40545,-1.642908 6.77935,-3.348071 10.1981,-4.964635 4.99891,-2.391221 10.02293,-4.745567 15.35578,-6.317871 6.97948,-2.285439 14.03803,-4.289803 21.18077,-6.005672 7.43085,-1.894466 14.88494,-3.708852 22.34992,-5.462142 8.17753,-1.873202 16.36131,-3.737718 24.66551,-4.974168 9.03841,-1.493023 18.09307,-2.905544 27.19799,-3.934398 8.94401,-0.961166 17.90943,-1.78075 26.89652,-2.204524 8.3353,-0.432577 16.67729,-0.73409 25.02144,-0.929367 7.70383,-0.257097 15.40537,-0.468205 23.11435,-0.480577 7.19958,-0.144458 14.39341,-0.42274 21.58658,-0.756862 6.15418,-0.127268 12.3032,-0.367409 18.45331,-0.618311 4.31284,-0.0012 8.62568,-0.0026 12.93851,-0.01063 3.12948,-0.0059 6.2592,-0.02335 9.38852,0.0165 2.59088,0.05749 5.22146,0.08583 7.73587,0.786816 1.94848,0.666645 3.8164,1.562171 5.5097,2.74324 0.88705,0.591362 0.0507,1.845829 -0.83631,1.254468 z"
       inkscape:connector-curvature="0" />
    <path
       style="fill:none;stroke:#000000;stroke-width:1px;stroke-linecap:butt;stroke-linejoin:miter;stroke-opacity:1"
       d="m 245.7522,80.660998 -42.96894,119.860732 150.01438,9.0461 44.47662,-129.660673 z"
       id="path3455"
       inkscape:connector-curvature="0" />
    <path
       style="fill:#000080;fill-opacity:0.98293511;stroke:#fe0000;stroke-width:0;stroke-miterlimit:4;stroke-opacity:1;stroke-dasharray:none"
       id="path3457"
       d="m 297.64436,138.187 c -0.63222,0.4006 -1.12644,0.92992 -1.58096,1.51341 -0.10352,0.13288 -0.21864,0.25748 -0.31068,0.39855 -0.0194,0.0298 0.002,0.13463 -0.018,0.10522 -0.23781,-0.34904 -0.43396,-0.72472 -0.65095,-1.08708 -0.0439,-0.0119 -0.12485,0.009 -0.13163,-0.0357 -0.002,-0.0146 0.43886,-1.85617 0.47312,-2.12172 -0.12357,-0.53122 -0.0416,-0.46592 -0.3817,-0.48484 -0.32584,0.14785 -0.62512,0.4715 -0.82452,0.85092 -0.22119,0.44531 -0.11265,0.38723 0.0954,0.48489 0.27877,0.0512 0.31421,-0.16725 0.34167,-0.23853 -0.0796,0.61938 -0.3522,-0.12216 -0.23016,0.18437 0.28853,0.11885 -0.21067,1.08097 -0.28634,1.40316 0.16983,1.08796 0.24675,0.38226 -0.097,0.3071 -0.87247,-0.19073 -0.96499,0.42902 -0.86131,-0.0404 -0.13787,-0.28546 -0.24565,-0.45727 -0.54024,-0.63583 -0.36696,-0.1809 0.39508,0.18367 0.52465,-0.0424 0.4487,-0.7828 0.15372,-0.96706 0.47291,-0.27683 0.20867,0.46508 0.0324,0.0521 -0.0215,0.0121 -0.42203,-0.31292 -0.47038,-0.0644 -0.36538,-0.32907 -0.41168,0.62565 -0.0182,-0.1399 0.1451,1.00382 0.006,0.0445 -0.41786,0.15635 -0.81789,0.39267 -0.27418,0.16198 -0.52596,0.3592 -0.78895,0.53879 -0.88767,0.59041 -1.72264,-0.66495 -0.83496,-1.25536 l 0,0 c 0.76161,-0.4961 4.30051,-2.58309 3.41145,0.33519 -0.61665,0.58956 -1.66581,0.99262 -2.09661,-0.066 -0.48455,-1.05101 -0.12819,-2.2903 1.19639,-1.5747 0.83326,0.56382 1.22426,1.3327 1.15322,2.35029 -0.8118,2.33541 -2.36883,0.10437 -1.94609,-1.0702 0.27753,-1.14275 0.67407,-2.39265 2.01958,-2.53611 0.99528,0.26053 1.50917,1.05971 1.26032,2.06798 -0.56567,0.87497 -1.4908,1.19129 -2.46368,0.73204 -0.87761,-0.62271 -1.11546,-1.51593 -0.58801,-2.47997 0.5517,-0.96027 1.3398,-1.60487 2.49624,-1.58331 1.06415,0.30881 1.52695,1.03711 1.5225,2.14499 -0.16605,1.26487 -0.31388,2.65585 -1.45437,3.42118 -0.37238,-0.32164 -0.85109,-0.55099 -1.11716,-0.96491 -0.18818,-0.29276 2.10153,-2.52467 2.45927,-2.67809 0.88704,-0.59137 1.72335,0.6631 0.83631,1.25446 z"
       inkscape:connector-curvature="0" />
    <path
       style="fill:#000080;fill-opacity:0.98293511;stroke:#fe0000;stroke-width:0;stroke-miterlimit:4;stroke-opacity:1;stroke-dasharray:none"
       id="path3459"
       d="m 311.61748,134.56797 c 1.52777,3.19073 3.49398,6.12975 5.61057,8.95338 1.84321,2.47659 4.07971,4.61524 6.08194,6.95336 0.83729,0.68494 1.35608,1.69345 2.17888,2.37963 0.10876,0.0782 0.22184,0.15056 0.33742,0.21827 -0.33361,0.3473 -0.66721,0.69459 -1.00082,1.04189 -0.82756,-0.67208 0.1229,-1.84243 0.95046,-1.17036 l 0,0 c -0.10956,0.52925 -0.21912,1.05849 -0.32868,1.58773 -0.34995,-0.10406 -0.65514,-0.30762 -0.9396,-0.53284 -0.87024,-0.75912 -1.47005,-1.77972 -2.34368,-2.54465 -2.01882,-2.36603 -4.28737,-4.52042 -6.14251,-7.02901 -2.16934,-2.89673 -4.18469,-5.91148 -5.75249,-9.18315 -0.47677,-0.95354 0.87174,-1.62779 1.34851,-0.67425 z"
       inkscape:connector-curvature="0" />
    <path
       style="fill:#000080;fill-opacity:0.98293511;stroke:#fe0000;stroke-width:0;stroke-miterlimit:4;stroke-opacity:1;stroke-dasharray:none"
       id="path3461"
       d="m 322.91054,135.14291 c -1.75965,2.79869 -3.14513,5.82979 -4.42114,8.87458 -1.13656,2.85487 -2.13397,5.7599 -3.38219,8.56979 -0.64061,1.40595 -1.01744,2.90064 -1.893,4.18748 -0.85488,1.27172 -1.93888,0.26352 -2.73547,-0.4856 -0.9682,-1.15796 -1.88854,-2.36677 -2.75074,-3.60663 -0.45875,-0.72929 -1.09658,-1.21366 -1.35391,-2.05685 0.10518,-0.99703 0.42758,-1.04128 0.90417,-1.42779 0.16398,-0.0227 0.32795,-0.0453 0.49192,-0.068 1.0645,-0.0582 1.14683,1.44722 0.0823,1.50544 l 0,0 c -0.002,-0.0136 -0.004,-0.0271 -0.007,-0.0407 0.70874,-0.87345 -0.10523,0.55827 0.015,-0.21921 -0.37701,-0.40175 1.41498,1.69671 1.10752,1.45006 0.79438,1.15857 1.66996,2.269 2.54479,3.36683 0.58819,0.55649 1.10306,0.57355 0.23363,0.98965 -0.10361,0.0496 0.47263,-0.39001 0.22486,-0.26111 0.83538,-1.19947 1.11552,-2.64557 1.75797,-3.94625 1.24645,-2.79903 2.23166,-5.69751 3.36949,-8.54039 1.31547,-3.1322 2.74031,-6.25097 4.55695,-9.12762 0.59136,-0.88704 1.84583,-0.0507 1.25447,0.83632 z"
       inkscape:connector-curvature="0" />
    <path
       style="fill:#000080;fill-opacity:0.98293511;stroke:#fe0000;stroke-width:0;stroke-miterlimit:4;stroke-opacity:1;stroke-dasharray:none"
       id="path3463"
       d="m 332.73776,149.51191 c -1.10181,2.31443 -2.06874,4.68653 -2.69311,7.17502 -0.40507,2.16709 0.21288,4.18834 1.03562,6.16358 0.46363,1.11938 1.01796,2.40235 2.34521,2.59696 1.50409,-0.21694 2.10881,-1.88509 2.59114,-3.12631 0.63783,-1.93169 1.65702,-4.20412 0.57456,-6.13446 -1.65291,-1.45985 -4.14758,-0.94187 -6.11608,-0.52964 -1.0439,0.21639 -1.34993,-1.25991 -0.30603,-1.4763 l 0,0 c 2.19542,-0.45089 4.92189,-0.93378 6.92256,0.44972 0.33756,0.23343 0.56776,0.59278 0.85164,0.88917 0.16661,0.36682 0.39123,0.71249 0.49983,1.10046 0.58111,2.07606 -0.42027,4.31995 -1.02505,6.25701 -0.80227,1.98815 -1.89154,4.10364 -4.33521,4.03858 -1.79452,-0.49534 -2.76034,-1.77081 -3.39465,-3.4862 -0.94702,-2.2801 -1.59511,-4.62169 -1.10539,-7.1115 0.66447,-2.61879 1.67043,-5.12306 2.84592,-7.55411 0.52893,-0.92562 1.83797,-0.1776 1.30904,0.74802 z"
       inkscape:connector-curvature="0" />
    <path
       style="fill:#000080;fill-opacity:0.98293511;stroke:#fe0000;stroke-width:0;stroke-miterlimit:4;stroke-opacity:1;stroke-dasharray:none"
       id="path3465"
       d="m 477.83751,62.552786 c -0.43023,3.752928 -0.49221,7.535752 -0.57144,11.30862 -0.23327,5.431092 -0.54603,10.856338 -1.143,16.260401 -0.48173,3.756832 -0.85823,7.524853 -1.09977,11.304553 -0.063,1.02153 -0.11345,2.04411 -0.11564,3.06776 4e-4,0.0448 0.0433,0.119 10e-4,0.13451 -0.46788,0.17243 -0.9502,0.47662 -1.44238,0.39663 -0.62236,-0.10116 -0.3723,-3.56521 -0.35174,-4.04071 0.25549,-4.17207 0.61608,-8.335121 0.81257,-12.512205 0.19458,-4.914341 0.22115,-9.833109 0.24005,-14.750607 0.12882,-3.74272 -0.11021,-7.471152 -0.44846,-11.195312 -0.0684,-0.729358 -0.13945,-1.458472 -0.21656,-2.18696 -0.0475,-0.448672 -0.0612,-0.542543 -0.0599,-0.542379 0.50607,0.06807 0.98502,0.269631 1.47754,0.404447 0.74582,1.268715 1.77144,2.355011 2.70123,3.491309 1.69055,1.879553 3.43154,3.704702 5.04789,5.652815 1.55809,1.95107 2.97504,4.004458 4.44214,6.022443 0.90523,1.070038 1.48802,2.46348 2.46259,3.471439 0.11737,0.136708 0.44215,0.326517 0.54566,0.362491 -0.24203,0.04204 -0.52578,0.268317 -0.72611,0.126127 -0.14245,-0.101109 0.18889,-0.29402 0.27733,-0.444668 0.0839,-0.142876 0.16196,-0.289104 0.23939,-0.43557 0.42977,-0.812925 0.82976,-1.642291 1.23829,-2.465915 1.49892,-2.566345 2.8751,-5.194832 4.36156,-7.768657 1.16367,-2.132503 2.50135,-4.174308 3.50015,-6.392569 0.59476,-1.458567 0.9636,-2.994854 1.62101,-4.426124 0.0223,0.04368 0.63051,-1.19921 0.66639,-1.154672 1.03993,1.291068 0.25072,1.161909 0.86773,1.238063 -0.18653,1.35673 -0.17044,2.736197 -0.0497,4.096832 0.37413,3.021815 0.50864,6.063877 0.6063,9.104801 0.0922,3.474921 0.0916,6.95138 0.0954,10.427252 -0.18366,3.64954 -0.45916,7.292862 -0.6214,10.94374 -0.0858,2.032853 -0.12604,4.067235 -0.14073,6.101731 -0.004,0.704992 -10e-4,1.409997 7.6e-4,2.114988 0.0421,0.45347 -0.17522,-0.0547 0.19267,-0.0295 1.71218,-0.331758 3.38446,-0.836569 5.08274,-1.233451 2.70645,-0.512373 5.44935,-0.839964 8.13255,-1.472738 1.16339,-0.287725 2.32356,-0.589957 3.47382,-0.926694 0.62076,-0.187395 0.13171,-0.08785 0.25291,1.475719 -1.04039,0.232676 -1.36944,-1.23866 -0.32905,-1.471336 l 0,0 c 0.66849,1.444737 1.13862,1.249948 0.49962,1.442605 -1.17651,0.344218 -2.363,0.653738 -3.553,0.947551 -2.68533,0.626708 -5.42481,0.973432 -8.13443,1.473174 -1.86553,0.4341 -3.70129,1.06565 -5.61144,1.2613 -0.81064,-0.12051 -1.54878,-0.51149 -1.51406,-1.46199 -0.002,-0.710173 -0.005,-1.420357 -7.4e-4,-2.130529 0.0149,-2.053188 0.0556,-4.106259 0.14219,-6.157786 0.16133,-3.628032 0.43192,-7.248737 0.6199,-10.875157 -0.004,-3.460296 -0.003,-6.921177 -0.0946,-10.380532 -0.0966,-3.014164 -0.23018,-6.029341 -0.60157,-9.024505 -0.13539,-1.633623 -0.22121,-3.352311 0.22686,-4.944876 0.72451,-0.959819 0.34528,-0.875805 1.69971,0.335383 0.0324,0.02897 -0.0506,0.07072 -0.0744,0.107078 -0.0948,0.144693 -0.18527,0.296047 -0.26789,0.447553 -0.0681,0.124925 -0.13191,0.252176 -0.19786,0.378265 -0.66194,1.42345 -1.00146,2.969076 -1.61596,4.415062 -1.02627,2.260753 -2.3719,4.353431 -3.56831,6.525393 -1.47059,2.546217 -2.83088,5.147307 -4.3165,7.684584 -0.29289,0.590461 -1.26636,2.948525 -1.75535,3.346851 -0.30901,0.251711 -0.66248,0.443277 -0.99371,0.664915 -0.49981,-0.142286 -0.92086,-0.452505 -1.29187,-0.810151 -0.96817,-1.103438 -1.66977,-2.437884 -2.56644,-3.599052 -1.44775,-1.992336 -2.84669,-4.018918 -4.38293,-5.946231 -1.61828,-1.950888 -3.36529,-3.774976 -5.05436,-5.660673 -1.14088,-1.394275 -2.60785,-2.730157 -3.0399,-4.527306 0.50866,-0.164511 0.99971,-0.39955 1.52599,-0.493534 0.0715,-0.01278 0.0166,0.14439 0.0246,0.216623 0.0937,0.847998 0.17485,1.697334 0.25536,2.546661 0.34245,3.771361 0.58313,7.547405 0.45463,11.337468 -0.019,4.939201 -0.0459,9.879677 -0.24171,14.815694 -0.19662,4.175197 -0.55568,8.336497 -0.81231,12.506582 -0.0612,1.40961 -0.0491,0.99112 -0.0833,2.23147 -0.0253,0.9186 0.0438,0.73944 -1.1365,1.36017 -0.0445,0.0234 -8.2e-4,-0.10055 -0.001,-0.15082 0.003,-1.05457 0.0534,-2.10808 0.11871,-3.16047 0.24325,-3.80289 0.62108,-7.594166 1.10584,-11.374069 0.59331,-5.359426 0.90091,-10.74013 1.13419,-16.126359 0.0806,-3.833543 0.1445,-7.677324 0.58626,-11.490164 0.15077,-1.055378 1.6433,-0.84216 1.49253,0.213218 z"
       inkscape:connector-curvature="0" />
    <path
       style="fill:#000080;fill-opacity:0.98293511;stroke:#fe0000;stroke-width:0;stroke-miterlimit:4;stroke-opacity:1;stroke-dasharray:none"
       id="path3469"
       d="m 463.57982,102.52239 c 2.63167,0 5.26334,0 7.89502,0 1.64338,0.10017 3.32646,-0.17288 4.95454,0.10378 1.23544,0.37804 2.51991,0.51818 3.77992,0.79785 1.0407,0.23129 0.7136,1.70306 -0.3271,1.47177 l 0,0 c -1.24547,-0.27717 -2.51745,-0.41278 -3.73799,-0.78915 -1.499,-0.35255 -3.14881,0.11762 -4.66937,-0.0766 -2.63168,0 -5.26335,0 -7.89502,0 -1.06609,0 -1.06609,-1.50768 0,-1.50768 z"
       inkscape:connector-curvature="0" />
  </g>
</svg>
